<mxfile host="drawio-plugin" modified="2021-07-20T16:06:05.482Z" agent="5.0 (Macintosh; Intel Mac OS X 10_16_0) AppleWebKit/537.36 (KHTML, like Gecko) Chrome/81.0.4044.113 Safari/537.36" etag="WSKc71cAFf6Felh0pp1o" version="13.7.9" type="embed"><diagram id="wLclL3ULNFntQKuiNrY7" name="Page-1"><mxGraphModel dx="728" dy="510" grid="1" gridSize="10" guides="1" tooltips="1" connect="1" arrows="1" fold="1" page="1" pageScale="1" pageWidth="850" pageHeight="1100" math="0" shadow="0"><root><mxCell id="0"/><mxCell id="1" parent="0"/><mxCell id="Ay9CTuyjkNeXhY_29lOT-4" style="edgeStyle=orthogonalEdgeStyle;rounded=0;orthogonalLoop=1;jettySize=auto;html=1;exitX=0.87;exitY=0.65;exitDx=0;exitDy=0;exitPerimeter=0;" parent="1" source="Ay9CTuyjkNeXhY_29lOT-1" target="Ay9CTuyjkNeXhY_29lOT-2" edge="1"><mxGeometry relative="1" as="geometry"/></mxCell><mxCell id="Ay9CTuyjkNeXhY_29lOT-1" value="" style="verticalLabelPosition=bottom;html=1;verticalAlign=top;align=center;strokeColor=none;fillColor=#00BEF2;shape=mxgraph.azure.user;" parent="1" vertex="1"><mxGeometry x="120" y="147" width="50" height="50" as="geometry"/></mxCell><mxCell id="Ay9CTuyjkNeXhY_29lOT-2" value="" style="outlineConnect=0;fontColor=#232F3E;gradientColor=none;fillColor=#277116;strokeColor=none;dashed=0;verticalLabelPosition=bottom;verticalAlign=top;align=center;html=1;fontSize=12;fontStyle=0;aspect=fixed;pointerEvents=1;shape=mxgraph.aws4.bucket_with_objects;" parent="1" vertex="1"><mxGeometry x="360" y="130" width="75" height="78" as="geometry"/></mxCell><mxCell id="Ay9CTuyjkNeXhY_29lOT-14" style="edgeStyle=orthogonalEdgeStyle;rounded=0;orthogonalLoop=1;jettySize=auto;html=1;exitX=0.5;exitY=1;exitDx=0;exitDy=0;exitPerimeter=0;" parent="1" source="Ay9CTuyjkNeXhY_29lOT-3" target="Ay9CTuyjkNeXhY_29lOT-13" edge="1"><mxGeometry relative="1" as="geometry"><Array as="points"><mxPoint x="645" y="300"/><mxPoint x="645" y="300"/></Array></mxGeometry></mxCell><mxCell id="Ay9CTuyjkNeXhY_29lOT-3" value="" style="outlineConnect=0;dashed=0;verticalLabelPosition=bottom;verticalAlign=top;align=center;html=1;shape=mxgraph.aws3.lambda_function;fillColor=#F58534;gradientColor=none;" parent="1" vertex="1"><mxGeometry x="610" y="136" width="69" height="72" as="geometry"/></mxCell><mxCell id="Ay9CTuyjkNeXhY_29lOT-6" value="" style="endArrow=classic;html=1;" parent="1" source="Ay9CTuyjkNeXhY_29lOT-2" target="Ay9CTuyjkNeXhY_29lOT-3" edge="1"><mxGeometry width="50" height="50" relative="1" as="geometry"><mxPoint x="400" y="270" as="sourcePoint"/><mxPoint x="450" y="220" as="targetPoint"/></mxGeometry></mxCell><mxCell id="Ay9CTuyjkNeXhY_29lOT-7" value="&lt;font style=&quot;font-size: 14px&quot; color=&quot;#33001a&quot;&gt;User uploads file to S3 Bucket&lt;/font&gt;" style="text;html=1;strokeColor=none;fillColor=none;align=center;verticalAlign=middle;whiteSpace=wrap;rounded=0;" parent="1" vertex="1"><mxGeometry x="180" y="97" width="140" height="100" as="geometry"/></mxCell><mxCell id="Ay9CTuyjkNeXhY_29lOT-9" value="&lt;font color=&quot;#cc0000&quot; style=&quot;font-size: 14px&quot;&gt;When you deploy this lambda function an role&amp;nbsp;&lt;br&gt;will be created automatically with lambda as trusted service required name with read perms from the s3 Bucket and lambda Execution Permission. This Lambda Function will be triggered on Object Upload&lt;/font&gt;" style="text;html=1;strokeColor=none;fillColor=none;align=center;verticalAlign=middle;whiteSpace=wrap;rounded=0;" parent="1" vertex="1"><mxGeometry x="670" y="20" width="370" height="90" as="geometry"/></mxCell><mxCell id="Ay9CTuyjkNeXhY_29lOT-13" value="" style="outlineConnect=0;fontColor=#232F3E;gradientColor=none;fillColor=#277116;strokeColor=none;dashed=0;verticalLabelPosition=bottom;verticalAlign=top;align=center;html=1;fontSize=12;fontStyle=0;aspect=fixed;pointerEvents=1;shape=mxgraph.aws4.bucket_with_objects;" parent="1" vertex="1"><mxGeometry x="620" y="360" width="75" height="78" as="geometry"/></mxCell><mxCell id="Ay9CTuyjkNeXhY_29lOT-15" value="&lt;font style=&quot;font-size: 14px&quot; color=&quot;#33001a&quot;&gt;Destination Bucket&lt;/font&gt;" style="text;html=1;strokeColor=none;fillColor=none;align=center;verticalAlign=middle;whiteSpace=wrap;rounded=0;" parent="1" vertex="1"><mxGeometry x="637.5" y="460" width="40" height="20" as="geometry"/></mxCell><mxCell id="Ay9CTuyjkNeXhY_29lOT-17" value="&lt;font style=&quot;font-size: 14px&quot; color=&quot;#33001a&quot;&gt;Original Bucket&lt;/font&gt;" style="text;html=1;strokeColor=none;fillColor=none;align=center;verticalAlign=middle;whiteSpace=wrap;rounded=0;" parent="1" vertex="1"><mxGeometry x="370" y="240" width="80" height="20" as="geometry"/></mxCell><mxCell id="Ay9CTuyjkNeXhY_29lOT-20" value="&lt;h1 style=&quot;font-size: 18px&quot;&gt;&lt;font style=&quot;font-size: 18px&quot; color=&quot;#33001a&quot;&gt;Lambda&lt;/font&gt;&lt;/h1&gt;&lt;p style=&quot;font-size: 18px&quot;&gt;&lt;font style=&quot;font-size: 18px&quot; color=&quot;#33001a&quot;&gt;This Lambda Function will&amp;nbsp; remove any exif metadata from the object and then upload the object&amp;nbsp; to destination bucket via BOTO3&lt;/font&gt;&lt;/p&gt;" style="text;html=1;strokeColor=none;fillColor=none;spacing=5;spacingTop=-20;whiteSpace=wrap;overflow=hidden;rounded=0;" parent="1" vertex="1"><mxGeometry x="270" y="300" width="300" height="120" as="geometry"/></mxCell><mxCell id="Ay9CTuyjkNeXhY_29lOT-22" value="" style="endArrow=none;dashed=1;html=1;dashPattern=1 3;strokeWidth=2;" parent="1" source="Ay9CTuyjkNeXhY_29lOT-20" target="Ay9CTuyjkNeXhY_29lOT-3" edge="1"><mxGeometry width="50" height="50" relative="1" as="geometry"><mxPoint x="570" y="300" as="sourcePoint"/><mxPoint x="620" y="250" as="targetPoint"/></mxGeometry></mxCell><mxCell id="_VhHcBKlBIuf5wOs1xLx-1" value="" style="shape=image;verticalLabelPosition=bottom;labelBackgroundColor=#ffffff;verticalAlign=top;aspect=fixed;imageAspect=0;image=data:image/png,iVBORw0KGgoAAAANSUhEUgAAA9wAAAKeCAYAAABXtxPOAAAgAElEQVR4Aeydh3sc1dm+81f8vu9L7z1YuyuZQCAJIQmBhCSEQAghJCHg0MEGdxt3Y5tqegmdhF5SCC10DO7dlmXLkgvuuHeD/f6u58yc1exoJK2kmUWS772uuWaknZ3yzL3Sec77nvd8bMfOncaCBjAAAzAAAzAAAzAAAzAAAzAAAzCQLgMfQ9B0BUVP9IQBGIABGIABGIABGIABGIABGBADGG4i/GQ4wAAMwAAMwAAMwAAMwAAMwAAMZMAAhjsDUenNojcLBmAABmAABmAABmAABmAABmAAw43hpicLBmAABmAABmAABmAABmAABmAgAwYw3BmISk8WPVkwAAMwAAMwAAMwAAMwAAMwAAMYbgw3PVkwAAMwAAMwAAMwAAMwAAMwAAMZMIDhzkBUerLoyYIBGIABGIABGIABGIABGIABGMBwY7jpyYIBGIABGIABGIABGIABGIABGMiAAQx3BqLSk0VPFgzAAAzAAAzAAAzAAAzAAAzAAIYbw01PFgzAAAzAAAzAAAzAAAzAAAzAQAYMYLgzEJWeLHqyYAAGYAAGYAAGYAAGYAAGYAAGMNwYbnqyYAAGYAAGYAAGYAAGYAAGYAAGMmCgaLi379hhfqEnhp4YGIABGIABGIABGIABGIABGIABGOgcAx/bum2bbd6yxTZt3syCBjAAAzAAAzAAAzAAAzAAAzAAAzCQEgMf27Bxo61YvRpBUxKUjgs6bmAABmAABmAABmAABmAABmAABsTAxxpWrrI5CxbagQMHWNAABmAABmAABmAABmAABmAABmAABlJi4GO1S5fZW+9OQ9CUBKXjgo4bGIABGIABGIABGIABGIABGIABMfCxxXV19vqUdzDcGG4YgAEYgAEYgAEYgAEYgAEYgAEYSJEBZ7hfexvDTQ8UPVAwAAMwAAMwAAMwAAMwAAMwAANpMoDhTrH3Is0Hw7H4osMADMAADMAADMAADMAADMBA92YAw43hJmUEBmAABmAABmAABmAABmAABmAgAwYw3BmISi9U9+6F4vnx/GAABmAABmAABmAABmAABtJgAMON4aYnCwZgAAZgAAZgAAZgAAZgAAZgIAMGMNwZiJpGTwjHoEcNBmAABmAABmAABmAABmAABro3AxhuDDc9WTAAAzAAAzAAAzAAAzAAAzAAAxkwgOHOQFR6obp3LxTPj+cHAzAAAzAAAzAAAzAAAzCQBgMYbgw3PVkwAAMwAAMwAAMwAAMwAAMwAAMZMIDhzkDUNHpCOAY9ajAAAzAAAzAAAzAAAzAAAzDQvRnAcGO46cmCARiAARiAARiAARiAARiAARjIgAEMdwai0gvVvXuheH48PxiAARiAARiAARiAARiAgTQYwHBjuOnJggEYgAEYgAEYgAEYgAEYgAEYyIABDHcGoqbRE8Ix6FGDARiAARiAARiAARiAARiAge7NAIYbw01PFgzAAAzAAAzAAAzAAAzAAAzAQAYMYLgzEJVeqO7dC8Xz4/nBAAzAAAzAAAzAAAzAAAykwQCGG8NNTxYMwAAMwAAMwAAMwAAMwAAMwEAGDGC4MxA1jZ4QjkGPGgzAAAzAAAzAAAzAAAzAAAx0bwYw3BhuerJgAAZgAAZgAAZgAAZgAAZgAAYyYADDnYGo9EJ1714onh/PDwZgAAZgAAZgAAZgAAZgIA0GMNwYbnqyYAAGYAAGYAAGYAAGYAAGYAAGMmAAw52BqGn0hHAMetRgAAZgAAZgAAZgAAZgAAZgoHszgOHGcNOTBQMwAAMwAAMwAAMwAAMwAAMwkAEDGO4MRKUXqnv3QvH8eH4wAAMwAAMwAAMwAAMwAANpMIDhxnDTkwUDMAADMAADMAADMAADMAADMJABAxjuDERNoyeEY9CjBgMwAAMwAAMwAAMwAAMwAAPdmwEMN4abniwYgAEYgAEYgAEYgAEYgAEYgIEMGMBwZyAqvVDduxeK58fzgwEYgAEYgAEYgAEYgAEYSIMBDDeGm54sGIABGIABGIABGIABGIABGICBDBjAcGcgaho9IRyDHjUYgAEYgAEYgAEYgAEYgAEY6N4MYLgx3PRkwQAMwAAMwAAMwAAMwAAMwAAMZMAAhjsDUemF6t69UDw/nh8MwAAMwAAMwAAMwAAMwEAaDGC4Mdz0ZMEADMAADMAADMAADMAADMAADGTAAIY7A1HT6AnhGPSowQAMwAAMwAAMwAAMwAAMwED3ZgDDjeGmJwsGYAAGYAAGYAAGYAAGYAAGYCADBjDcGYhKL1T37oXi+fH8YAAGYAAGYAAGYAAGYAAG0mAAw43hpicLBmAABmAABmAABmAABmAABmAgAwYw3BmImkZPCMegRw0GYAAGYAAGYAAGYAAGYAAGujcDGG4MNz1ZMAADMAADMAADMAADMAADMAADGTCA4c5AVHqhuncvFM+P5wcDMAADMAADMAADMAADMJAGAxhuDDc9WTAAAzAAAzAAAzAAAzAAAzAAAxkwgOHOQNQ0ekI4Rsd71NauW2fvvDvV9u7dyx8N+K4YA3DX8e8sf+/QDgZgAAZgAAZgoKcygOHGkFTMkGT9JWpobLRfn36m/d8nP2f/7/8+bV/7ZpWNHDW2x9xf1vpx/I79o4O7jukGb+gGAzAAAzAAAzBwODCA4U7ZcDeuWGGPPPp4h5cXX3oZg9jBZzJoyHBntGW2o8tz/3kBTTuo6eHwR7Cz9wh3NBY6yxCfhyEYgAEYgAEY6LkMYLhTNiLPPPvPErMXNX7lbJ9w0smYww4+E0W0kzSeMOlaNO2gpvzxb/uPP9y1rREcoREMwAAMwAAMwMDhygCGO2UjguHu/B+TxbW1po6H6PLQw39v0zQffcz3Ew23Mg4O1y849915HtvSEO6y17itZ8D7PAMYgAEYgAEYgIGuygCGG8Pd5czok08908w497tyYJvXOfmmW5p97pu9qm337t1tfrarfkG5rq7/zwPuuv4z4nvEM4IBGIABGIABGPioGMBwY7i7nBlVCng8Nbwcw60v0bRpM2zIsBF2+m/Psrv/ep+pcvRH9eXivIfPH3a4O3yeNd9rnjUMwAAMwAAMwEB7GMBwV8hwX96vv5uqStNVtbbMn7/gsDeI5/a5oMOGuz3wsy9/LGEABmAABmAABmAABmAABrJkoNsZ7gULFrroZTwC2t6fFQHVsdIWt6Ux3JOuvT71c6V97fHjrV+/wV5/403TPc2aPce2bdve4XvYuXOnqTNB47PbOs73jz/hIzHcusY5c+fZ08/8w9548y1bt259h+83rqX/OU1N/TFbW1finlo7f1vviYXp02fYU08/a2+9PSUTzdu6ho/6fTTgn/xHzSDnh0EYgAEYgAEYyI6Bbme489VHNTNj7TXbfn8dK2240jTcV/QfZDKf0eXsP/458Zr/+a/nSvbzn3l7yjvN9r/+hpua7au5hKXFvHnz7ew/nWvfOKLQTOePf+rzNmrMeNu+vW3jvX//fnvgwYftrLP/ZL2POtb+9xOfLTneN76VtwEDh9jMmbPceWW67rjzbrvw4stM5/HPyK+/8vUjml3z5JtvLbm3W2+7s9k+0mH16vdK9os+8y1bt9rAwcPs29/5XnH+bn9OrVWBWnN7z5w1u8Vj6HiV0DR63a1td+ae9u3bZ6ec+ptmOv7ghz+xrVu3tajB0OEjm31G2vvnG73eDRs22mWXX2HVvY+2//n4ZxKf9cRrrmtx7H2S1pqOT+dQh8bNt95uv/v9H+1LX/2WfeqzX7Ix4662LO+rI9x1RgPdm/9++/Vxx59geu5RnbVdV7e02b76zPLlDc32XbKkLnFfDdGIH7e7/Lxv336bUrvBHnmr0W5/oc4em9Joi1dv6bb301105zqza7ShLdrCAAzAQPdjoNsZ7uojv9OsgR41SO3Z1rHShjZNw33Md3/Q7F5VETnpmh98+G/N9pUWSfN6//4P5zTbVyZGae//98nPNXsvrqka/EnX4H+3bFm9/eKU09o8jo4rY6/PyfDGz9PWz4OHXlVyHVeNGJ14jCRzoXO++trrVm4Hzsc/9TkbN35iiyYwa029tm2t07in0874XaKO//r3f0r09teyZ89e++JXvtnsM+okiRes+/dzzyd25iQ96+8ce5wtWlzb7JxJWj/62BP231deNXXkxI+lDhVda1b31V7uOqvBb3/3h2b3qHvW/ftn4tf33vdA4r7qDPP7+LVmAohrp5/VEeb3SXO9Z+9+27VnX3HZt39/qudZtnab/fq6t+yb/f7TbNmyY0+q50pTF47V/RpSPDOeGQzAAAzAQGsMdDvD3VIDMqmh2NbvdKzWxOnIe93VcLelVfz95194MVE7paB/5vNfSWy4x4+hnz8qwy2DlhRdTbrG6O9+9eszEu87yQRGP1fOdkualsthWveUVCVe199S4Tqlgifdnze6/vo78t39yUk/N2VL+GNonaS1ouWf+PQXWr2OrO6rPYY7DQ0eeCi5c23CxObzzZ/3lwsTNelz/sUlmkrXvlcMSNx3xYqVzfaNPo+Obl9yz8wSI/zinDWpnucPt7xbcvyo8cZw0zDqKLd8DnZgAAZgAAbay0C3M9xqfJ962m8TG4ZJjf6WfqdjxBvy7RUvaf/DxXAPGjK8WeNY0cyjvpM8F3ZLz+GjMNybt2xJjIS2dI3x3z/+xFPN7j3JBMY/19bPSZomMZb0uzTvSeO+lY4dv95c4dvN7lvXMnL0uGb76rOz58wt7r9x40b78teOSNxPxz3me8cnnlPHuf+Bh4rH0fnaq7U3/lncl66nXMOdlgaqLZCUiaK/aXE2NC1e/Dnq529VVTfbV6nm8X1/9JOfNdsvfo6O/pyl4VbaeNRga/vnE94wnfNPt0617bv2ZnZfHdWDz9GAgwEYgAEYgIGeyUC3M9wCUeONP//FrzVrHMYbiy39rM/6Mctpg92S4da1KMW2pSUp4lTJlHJdnyKEl/W90jQeXGNvNTa1pVRvpefGtbvhxptafCY/PfkU03zF0kepqyNGjnHjbM859y/uOJrCS4XlNEY86bn96ISfuve1j19efvmVkmso1/gMu2pk4jk+/6Wv211/vdcV8ZIGJ//y14n7HZGraVb4rSUT2FlN4xq39HPa99R/wODEe1+4cFGJ5rqeY7//w2b7fu8HPy7ZL+l4Gh8fjeprjPgfz+nT7FhiJ3rfLWmdxI1+5w23jpF0Hdqno/elY5bLXdK5O6pB0pCNz33xq7Z3b5ORrF2ypJmWUY30vtdVhduSTLy+036ftNdZGm5Fy6OG+9zbp2Z2H2nrwvF6ZmOL58pzhQEYgIHDl4FuabgFbEdSM31jM4tUcv8las1w+/MnrZPGRVfScKuoWVJxMRnPpOuNR74UPfzsF5JTyW+65bayswlUTCrpfC2lM3vdtS7H+KiwlMZjx8+hQm2qUB493q5du1o03eogiO6bZAI7q2n0+K1tZ3FP6nCJa6Sf44XqVKwsab/bbr+zqM/mzZsTzZy+K/H7UvT2k5/5YskxZUqj+yVprWtQ55CKtz3x5NOuyrwKBuoc9fXLi59P8778NZXDXdoaaFx1ku7RrIL77n8wcR//uXvuvb+oy5tvvp24rwqp+ftMe90Zw71//wHT0tI1/e3NhhLDfcvzTZ0LLX3G/z7tseT+uKxbfl5ogzYwAAMwAAM9mYFua7g7mlqeVSq5h6S7Gm5Ft/w9RNeKfMUNkBrsijhH99OUX74hH12f+NNflOwX/UzSdtaGW9XGo9fntxVZTbqeF158KXF/RSuj+yeZwM5qGj1+a9tZ3VNS5PqXvzq95L5l2ryGfq3Oi+iUajNmzGy2j7IEWronFUvzx/LrTZs2Ffdvj9ZJ50jrvvyxyzHcaWugcdVem+j6zrvvKerU5/yLEvfx+//5vPOL+yr7xP/er5Xm7+8xi3VrhlvVxfvdP6u4zFi2yVZv2mGjn5hvv7n+base+KLlB7xgv772LXtl3trida7bvMsen7LC/nzb1BLD/cuJbxaPNfyR0o61DVt32ZgnF9gZN0yx3oNftFz/F0z7X/HALJu/YnPx2FlowDFpYMIADMAADMBAz2eg2xpuwdne1PIsU8n9l6WnGW7dl8bY+ka4X8cj3M/+45/N9tG+qp7utSlnnbXh1vhrfw/RddK4bF2vppNKitzHx8u21wSWo2k5emmfrO7pllvvaKaVzHR0+qkzz/pjs33iU9c9/sSTzfb5+jdzNnDQ0MQlKQNh4aLFRY7aq3Vcx7Tuyx+3HMOdtgY6tzq9ogxrW0XS/HXFx2+f/tuzSvbXM/D7/uFP55W8p2NdPeGa4vt+vzTXrRnuvfv2lxjmn4x7zQoDXyj5nU8ZP+KK/9ichvfdtT4zdWXiPn5frY8d/t/ifb22YK37Ofp+dLuq//N2+4vZRfnT1JNj9fwGG8+YZwwDMAAD3ZOBbm24BV17UsuzTCX3X4CWDLeiRRqv3NJy4+Sbi41Af6xKppS3FI3VtZRjDq+7fnKzBrsa7W+8+Vaz+/L3l7TO2nBPmHRt4nW+9daUFq9T84jHjY00iV5/e01gOZpGj9/adlb3tHbdusQ50f/5r3+7e9cwgqSK9Jr2Knq9LV1fXNPWfvbzbOu47dU6ei3aTuu+/HHLMdxpa6Bzayq/uGZVhSOd9koFj76n8d2vvPpaye/0vh+7royD6P7anjuvNBLs7zetdXsMd9QEJ22PeCy41menlW+4N27dbUcPfblNg67zvbV4fQnTaWnAcbpnw4nnxnODARiAARhoDwPd3nCXm1qedSq5F70lw61CX36fctfdyXCr2Fq8wa6f2zsGNGvDPXpsclE2bzySns2PTzy52b1pfHa0yn17TWCahjure5IWilbHn6vma9d7muM9/p6ippqXO6rjZZdf0Wy/+Ofa+llDG/wx26u1/1x0ncZ9+eOVY7jT1kDnXlxbm6ir0s3j47dP+82Zpg6S+PAQpaCvXLmq2XGqj/xOUW9/n2mv22O4e135vI18bL7NrN/klnjKuH7W9an6+POz37Nhj8wtMdJKD9fvtfgU9NGPzy/Z54Sxr9mU2vU2v3GznX/n9JL3VOG8tTHjaWvD8WjIwQAMwAAMwEDPYaDbG27B2FZqeSVSyf2X4nA13CNHjW3WaJeJenfqtHY13LM23GPHT0i8znfebbmKcdJUZ346M//c22sC0zTcWd2T7k3R6rgZ7pXv7Z6pUsLj76lautfEr8eMu7rZfvHPtfazUqP9sbRur9bRz/rtNO7LH6scw522Bv7cSePdVTROsx5ENVU0XJ85+RenlvxeqeRJw0F0T/4cWa3bY7iPH/VqyfUoFTwa6T775ndL3n/4jeUl79/+QvO08JPGv16yz9S6DcVjyLgfOfilkvdXb9pZfD8rTThuz2lc8Sx5ljAAAzAAA56BHmG4dTOtpZZXIpXcC3q4Gm7NlRxt4PvtlsZGe73i66wN99/+/mjidcp0xK/F//yFL3+j2Wc0ZZh/X+v2msA0DXdW96T7UrT6G9/KN7t/Fcmr7n10s98vWLCwRBcdQ9PAeR78ulBztK1fv6Gs5f33g/G5Xu/2au0/F12ncV/+eOUY7rQ18OdO6mxRR4jm2fZaa+07lMaNn1jye01TOHzEqJLfaf/2dpT562nPujOGu37tthIz3F7DvWfvflPU3Jv2bw95qRm3l9wzo/i+9ptS22TI23Of7EuDCwZgAAZgAAYObwZ6jOFuKbW8Uqnk/ouUteH+8teOcIW8/Pn8WsXJog1sv620X7+PX7fXsJRjDjVW258zuvbzbPtzt7VuyXArJbetz5ZjfGQkotfnt5USn3T8cvfPQtOk60n6XbnX6D/b3v2TDNnFl/ZtpmO8cr0/31tvT2m2r1LyN27cmKi5/1xL6/Zq3dJxOntf/rjlcJe2Bv7cs2bPaaatxmt7rrXWOPs9e/Y4rf/7yqsl7+l9zT8f3V9mPTpcwp8r7fVHabhXbNheYqZPHPd6MxavenReyT5PvrOi2T5pa8LxDu8GGc+f5w8DMAADPZOBHmO4BWg8tbySqeT+C5K14VbDeOq06c0afg889NEa7qRxoL4R/9rrbzS7Xq9XfK0K2P5z0bUiovF94z+XY3xaMvQyKWvWNk0v5I99bp8LEq8nPh91e01gOZ0Y/hraWmd1T/68ilpHn0VL23f99d7EZ7RmzZrEz0tbf472rNurdUvH7ux9+eOWw13aGvhza52vPipRX/+cohX1NRY+qQq831fr+JR30XOluf1RGu5tO/eWmOnvjWiqXO7v8coHZpfs8995azrEqz8e657ZiOK58lxhAAZgAAbaYqBHGW7drCI+amBq0XZbAqT9fpqG+6cnn5LYkP7Vr88wRcwUtVLhpJGjxzWLUvkGdKUi3NLx16efmXi9qoA+eOhV9uprr1t9/XKbPn2G/f2Rx2zUmPF24cWXNYumKc3VX390raiqOhZk4J9+5h825Z3ScZvlGB9dp+Yfjh7Xb6sauY65e/duW768wVQczL8XXasjRwYqyk57TWCahjure4ren6aBi2oQ31Yxruhc2dHParslNs4482x7e8o7TnP/GUVXV69+z1QNXc906PDSceHt1dofN2nd2fvSMcvlLk0NovcyZNiIVp/NNdfdUMLqT076eav763saPX5W2x+l4dY9fX/EK0VD/a0r/mMrN+wo3rcKpMXHeC9ds7X4flaacFwabTAAAzAAAzDQ8xjocYb7o4Y0TcN9yWX9Wm0Yx01P0s8vvNh8bGJ7DUu55lBzJbcVPUu6xr17S6tan3BS86rgSZ/74zl9ShrA5RofVXFOms4q6RxJv4tHt8VcVpqWy3MW9xQ991/vua9VFtWJEd0/vr1ocW2rbPzPxz9jqnCuYnRxhk786S9Kjt1erePXEv25s/elY5XLXZoaRO9BU9olcep/pw6N6P7qoPPvxdfq7IpXmY9+Ns3tj9pw97ljWtFwa4x2v/tnmeb/1j0+/EZDyXu9B71ou/fuK9ExTS04Vs9rXPFMeaYwAAMwAAOeAQz3gXRhSNNwP/y3R1psGMcbyi39XEnDLagUyW7pWlr6fdxwa6qilvaN/r6jhlvXqahf9FjlbqtiuR8P679EWrfXBJbbiRE9R1vbad9T9HwqXPapz36pRc2SMimin9e2ItXl6hzdL0vDncZ9lWu409Qgqu2+fftcZ0VUM7/96c99uSR7QJ/T3wT/fnytTr7osbPc/qgN9+zl75si275wmtbfveq/JZFv/97dLy+rmC5Zas6x0/1/j57oCQMwAAMwUA4DGO4ubLjVkP7hj09qsXHsG8sqQKX0Z02f5H/n15U23IqO3Tj55lbNmb82v44bbv18/I9ObHYvfn+/7ozhlra33nanyZD447W1PvOsP9p7772X2PDuCoY77XuK/wHpc/5FiVqpyFb8GcY/q5937dplqqr98U99PvE4LemfpeHWdXX2vtpjuNPSIK5vS8MfTjn1N8143bxli2mYR5Le/3n+hWb7x8+V1s8fteHWfYx/amGJ4fYGO7o+/fq3iW6n/H8yLYY4Dg1dGIABGICB7sAAhjvlhoQifUkN2UnXXt+hhqyKkZ32m+Sx0UrD1XjuufPmuWMPGDik2bnLNdya+qolYJPm+tXY15b21+/r6paaxud+8SvfbHZNXh+NJb3v/gcTj7N9+3bT3N5JU3Jpmirdt6Yii17DhInXNjuXNEoqhuY/t2RJnWmKL+3nryu+Vqqzpt7yn0laJxnutDVNOm/S79K6p/ixkypcSyuNxY/v29rPKlam+gStaa7jqnq2qtzrvNHjtVfr6GeTtjt7Xx3hrrMaxO+jpb87E6+5rkQ7/7mkjjzVJlCHgN8n6/WAh0qLkr2xaF3x3Pv27bf8gBeKZvhnV5cWXtSc2FFT3N5pwaL39tzM1S6yHT2etnX+yc/VmqYQi+7PNo07GIABGIABGICB9jCA4U7ZcLdH/Pbsq6mcZDBHjx1v99x7v5snd+vWbd2iIagCY5o2THMR/+Of/7Jp02Y0KzrWmhbLGxqc6Xrzzbdt3br1mdyzqjfPnDnLGevrb7jJbrv9TndOFe9q7dq68ntd/Z50fSpsqLnaJ990i9186+2O7X8/97zNnDU7MXW/K+vdkWtDg67zD3vVxh32+sJ1bql7b2txPHdHniuf6TrPlWfBs4ABGIABGPioGcBwdxPD/VGDwvn5YwUDMAADMAADMAADMAADMAAD7WMAw43h7rYRXL7s7fuyoxd6wQAMwAAMwAAMwAAMwEBlGcBwY7gx3DAAAzAAAzAAAzAAAzAAAzAAAxkwgOHOQFR6jSrba4Te6A0DMAADMAADMAADMAADMNAVGcBwY7jpyYIBGIABGIABGIABGIABGIABGMiAAQx3BqJ2xZ4VrokePxiAARiAARiAARiAARiAARioLAMYbgw3PVkwAAMwAAMwAAMwAAMwAAMwAAMZMIDhzkBUeo0q22uE3ugNAzAAAzAAAzAAAzAAAzDQFRnAcGO46cmCARiAARiAARiAARiAARiAARjIgAEMdwaidsWeFa6JHj8YgAEYgAEYgAEYgAEYgAEYqCwDGG4MNz1ZMAADMAADMAADMAADMAADMAADGTCA4c5AVHqNKttrhN7oDQMwAAMwAAMwAAMwAAMw0BUZwHBjuOnJggEYgAEYgAEYgAEYgAEYgAEYyIABDHcGonbFnhWuiR4/GIABGIABGIABGIABGIABGKgsAxhuDDc9WTAAAzAAAzAAAzAAAzAAAzAAAxkwgOHOQFR6jSrba4Te6A0DMAADMAADMAADMAADMNAVGcBwY7jpyYIBGIABGIABGIABGIABGIABGMiAAQx3BqJ2xZ4VrokePxiAARiAARiAARiAARiAARioLAMYbgw3PVkwAAMwAAMwAAMwAAMwAAMwAAMZMIDhzkBUeo0q22uE3ugNAzAAAzAAAzAAAzAAAzDQFRnAcGO46cmCARiAAfVpXOgAACAASURBVBiAARiAARiAARiAARjIgAEMdwaidsWeFa6JHj8YgAEYgAEYgAEYgAEYgAEYqCwDGG4MNz1ZMAADMAADMAADMAADMAADMAADGTCA4c5AVHqNKttrhN7oDQMwAAMwAAMwAAMwAAMw0BUZwHBjuOnJggEYgAEYgAEYgAEYgAEYgAEYyIABDHcGonbFnhWuiR4/GIABGIABGIABGIABGIABGKgsAxhuDDc9WTAAAzAAAzAAAzAAAzAAAzAAAxkwgOHOQFR6jSrba4Te6A0DMAADMAADMAADMAADMNAVGcBwY7jpyYIBGIABGIABGIABGIABGIABGMiAAQx3BqJ2xZ4VrokePxiAARiAARiAARiAARiAARioLAMYbgw3PVkwAAMwAAMwAAMwAAMwAAMwAAMZMIDhzkBUeo0q22uE3ugNAzAAAzAAAzAAAzAAAzDQFRnAcGO46cmCARiAARiAARiAARiAARiAARjIgAEMdwaidsWeFa6JHj8YgAEYgAEYgAEYgAEYgAEYqCwDGG4MNz1ZMAADMAADMAADMAADMAADMAADGTCA4c5AVHqNKttrhN7oDQMwAAMwAAMwAAMwAAMw0BUZwHBjuOnJggEYgAEYgAEYgAEYgAEYgAEYyIABDHcGonbFnhWuiR4/GIABGIABGIABGIABGIABGKgsAxhuDDc9WTAAAzAAAzAAAzAAAzAAAzAAAxkwgOHOQFR6jSrba4Te6A0DMAADMAADMAADMAADMNAVGcBwY7jpyYIBGIABGIABGIABGIABGIABGMiAAQx3BqJ2xZ4VrokePxiAARiAARiAARiAARiAARioLAMYbgw3PVkwAAMwAAMwAAMwAAMwAAMwAAMZMFA03Js2bzYWNIABGIABGIABGIABGIABGIABGICBdBjAcNPRQEcLDMAADMAADMAADMAADMAADMBABgwUDTe5/JXN5Udv9IYBGIABGIABGIABGIABGICBns0AhjuDPH2+ND37S8Pz5fnCAAzAAAzAAAzAAAzAAAyUwwCGG8NNcQQYgAEYgAEYgAEYgAEYgAEYgIEMGMBwZyBqOT0d7EOPGAzAAAzAAAzAAAzAAAzAAAz0bAYw3BhuerJgAAZgAAZgAAZgAAZgAAZgAAYyYADDnYGo9FL17F4qni/PFwZgAAZgAAZgAAZgAAZgoBwGMNwYbnqyYAAGYAAGYAAGYAAGYAAGYAAGMmAAw52BqOX0dLAPPWIwAAMwAAMwAAMwAAMwAAMw0LMZwHBjuOnJggEYgAEYgAEYgAEYgAEYgAEYyIABDHcGotJL1bN7qXi+PF8YgAEYgAEYgAEYgAEYgIFyGMBwY7jpyYIBGIABGIABGIABGIABGIABGMiAAQx3BqKW09PBPvSIwQAMwAAMwAAMwAAMwAAMwEDPZgDDjeGmJwsGYAAGYAAGYAAGYAAGYAAGYCADBjDcGYhKL1XP7qXi+fJ8YQAGYAAGYAAGYAAGYAAGymEAw43hpicLBmAABmAABmAABmAABmAABmAgAwYw3BmIWk5PB/vQIwYDMAADMAADMAADMAADMAADPZsBDDeGm54sGIABGIABGIABGIABGIABGICBDBjAcGcgKr1UPbuXiufL84UBGIABGIABGIABGIABGCiHAQw3hpueLBiAARiAARiAARiAARiAARiAgQwYwHBnIGo5PR3sQ48YDMAADMAADMAADMAADMAADPRsBjDcGG56smAABmAABmAABmAABmAABmAABjJgAMOdgaj0UvXsXiqeL88XBmAABmAABmAABmAABmCgHAYw3BhuerJgAAZgAAZgAAZgAAZgAAZgAAYyYADDnYGo5fR0sA89YjAAAzAAAzAAAzAAAzAAAzDQsxnAcGO46cmCARiAARiAARiAARiAARiAARjIgAEMdwai0kvVs3upeL48XxiAARiAARiAARiAARiAgXIYwHBjuOnJggEYgAEYgAEYgAEYgAEYgAEYyIABDHcGopbT08E+9IjBAAzAAAzAAAzAAAzAAAzAQM9mAMON4aYnCwZgAAZgAAZgAAZgAAZgAAZgIAMGMNwZiEovVc/upeL58nxhAAZgAAZgAAZgAAZgAAbKYQDDjeGmJwsGYAAGYAAGYAAGYAAGYAAGYCADBjDcGYhaTk8H+9AjBgMwAAMwAAMwAAMwAAMwAAM9mwEMN4abniwYgAEYgAEYgAEYgAEYgAEYgIEMGMBwZyAqvVQ9u5eK58vzhQEYgAEYgAEYgAEYgAEYKIcBDDeGm54sGIABGIABGIABGIABGIABGICBDBjAcGcgajk9HexDjxgMwAAMwAAMwAAMwAAMwAAM9GwGMNwYbnqyYAAGYAAGYAAGYAAGYAAGYAAGMmAAw52BqPRS9exeKp4vzxcGYAAGYAAGYAAGYAAGYKAcBjDcGG56smAABmAABmAABmAABmAABmAABjJgAMOdgajl9HSwDz1iMAADMAADMAADMAADMAADMNCzGcBwY7jpyYIBGIABGIABGIABGIABGIABGMiAAQx3BqLSS9Wze6l4vjxfGIABGIABGIABGIABGICBchjAcGO46cmCARiAARiAARiAARiAARiAARjIgAEMdwailtPTwT70iMEADMAADMAADMAADMAADMBAz2YAw43hpicLBmAABmAABmAABmAABmAABmAgAwYw3BmISi9Vz+6l4vnyfGEABmAABmAABmAABmAABsphAMON4aYnCwZgAAZgAAZgAAZgAAZgAAZgIAMGMNwZiFpOTwf70CMGAzAAAzAAAzAAAzAAAzAAAz2bAQw3hpueLBiAARiAARiAARiAARiAARiAgQwYwHBnICq9VD27l4rny/OFARiAARiAARiAARiAARgohwEMN4abniwYgAEYgAEYgAEYgAEYgAEYgIEMGMBwZyBqOT0d7EOPGAzAAAzAAAzAAAzAAAzAAAz0bAYw3BhuerJgAAZgAAZgAAZgAAZgAAZgAAYyYADDnYGo9FL17F4qni/PFwZgAAZgAAZgAAZgAAZgoBwGMNwYbnqyYAAGYAAGYAAGYAAGYAAGYAAGMmAAw52BqOX0dLAPPWIwAAMwAAMwAAMwAAMwAAMw0LMZwHBjuOnJggEYgAEYgAEYgAEYgAEYgAEYyIABDHcGotJL1bN7qXi+PF8YgAEYgAEYgAEYgAEYgIFyGMBwY7jpyYIBGIABGIABGIABGIABGIABGMiAAQx3BqKW09PBPvSIwQAMwAAMwAAMwAAMwAAMwEDPZgDDjeGmJwsGYAAGYAAGYAAGYAAGYAAGYCADBjDcGYhKL1XP7qXi+fJ8YQAGYAAGYAAGYAAGYAAGymEAw43hpicLBmAABmAABmAABmAABmAABmAgAwYw3BmIWk5PB/vQIwYDMAADMAADMAADMAADMAADPZsBDDeGm54sGIABGIABGIABGIABGIABGICBDBjAcGcgKr1UPbuXiufL84UBGIABGIABGIABGIABGCiHAQw3hpueLBiAARiAARiAARiAARiAARiAgQwYwHBnIGo5PR3sQ48YDMAADMAADMAADMAADMAADPRsBjDcGG56smAABmAABmAABmAABmAABmAABjJgAMOdgaj0UvXsXiqeL88XBmAABmAABmAABmAABmCgHAYw3BhuerJgAAZgAAZgAAZgAAZgAAZgAAYyYADDnYGo5fR0sA89YjAAAzAAAzAAAzAAAzAAAzDQsxnAcGO46cmCARiAARiAARiAARiAARiAARjIgAEMdwai0kvVs3upeL48XxiAARiAARiAARiAARiAgXIYwHBjuOnJggEYgAEYgAEYgAEYgAEYgAEYyIABDHcGopbT08E+9IjBAAzAAAzAAAzAAAzAAAzAQM9mAMON4aYnCwZgAAZgAAZgAAZgAAZgAAZgIAMGMNwZiEovVc/upeL58nxhAAZgAAZgAAZgAAZgAAbKYQDDjeGmJwsGYAAGYAAGYAAGYAAGYAAGYCADBjDcGYhaTk8H+9AjBgMwAAM9n4H9Bw7Y/v373cLz7vnPm2fMM4YBGOiODPj/U/qf1R2vv6tfM4YbsPhiwQAMwAAMpMiAGi579+613bt3Gy8UQAEUQAEU6E4K6H+X/ofpf1lXN7Ld5fow3Ck2srrLQ+c66b2DARiAgWwYUANlz969tm37dlu/YVN3amNxrSiAAiiAAijg/nfpf5j+l2G602krYLgx3PRewQAMwAAMpMTAvn37bMfOnbZm3TpbXFdH0w0FUAAFUAAFupUC+t+l/2H6X6b/aXTQd950Y7hTamQBY+dhREM0hAEY6O4MKA1vy9Zt1rhypU2bPbdbNbK4WBRAARRAARTQ/y79D9P/Mv1P6+7/l7vC9WO4Mdx8kWAABmAABlJiwBnuLVutvrHR3pk+g5YbCqAACqAACnQrBfS/S//DtmzZiuFOqW2A4U5JyK7Qe8I1EB2EARiAgY+Wgb379tnWbdusvnGFTZmG4e5WrUwuFgVQAAVQwP3v0v8w/S/T/zTaFZ1vV2C4Mdx8kWAABmAABlJiAMNNaxUFUAAFUKA7K6DOYgx35012tKMCw51SIysqKtvpQoqe6AkDMNBdGMBwd+dmJteOAiiAAiiA4U6/zYXhxnAT2YIBGIABGEiJAQw3jVUUQAEUQIHurACGG8NNozClRmF3iRZxnel/6dEUTWEgOwYw3N25mcm1owAKoAAKYLjTbyMQ4cbA0okBAzAAAzCQEgMYbhqrKIACKIAC3VkBDDeGm0ZhSo1CIlzpf5nQFE1hAAYw3N25mcm1owAKoAAKYLjTb8sQ4cbA0okBAzAAAzCQEgMYbhqrKIACKIAC3VkBDDeGm0ZhSo1CInHpf5nQFE1hAAYw3N25mcm1owAKoAAKYLjTb8sQ4cbA0okBAzAAAzCQEgMYbhqrKIACKIAC3VkBDDeGm0ZhSo1CInHpf5nQFE1hAAYw3N25mcm1owAKoAAKYLjTb8sQ4cbA0okBAzAAAzCQEgMYbhqrKIACKIAC3VkBDDeGm0ZhSo1CInHpf5nQFE1hAAYw3N25mcm1owAKoAAKYLjTb8sQ4cbA0okBAzAAAzCQEgMYbhqrKIACKIAC3VkBDDeGm0ZhSo1CInHpf5nQFE1hAAYw3N25mcm1owAKoAAKYLjTb8sQ4cbA0okBAzAAAzCQEgMYbhqrKIACKIAC3VkBDDeGm0ZhSo1CInHpf5nQFE1hAAYw3N25mcm1owAKoAAKYLjTb8sQ4cbA0okBAzAAAzCQEgOVMty1Qwu2ZGjetHbLsIItGZa3JcMKVje8YEuvKljdVXm3XjqiYMtGFGzpiGpbNjJcRmldsOWjqq1+VI3VjynY8jHVtnx0jS0fG2w3jq22xnE11jjOr2tsxbhqWzG+2lZcXWMrr662lW5dYysnaKm2VRNqbPXEGntvUo2tnlTt1u9dU2Nrrqmx967tbe9d19vWFJcaW3ddb1t7fW9be0ONrb0h2F53Y42tu6HG1t/Y29ZPPtLWT+5tGyYfaRsm97aNNwULTWIUQAEUQIFsFMBwY7hpFKbUKCQSl/6XCU3RFAZgoFKGe/GQvNUOyduSEsNdsCXDg6VueN7qnOmuNhnuuhFa522ZTLcMuIz3qILVjw6XUdXOcDeMDsx2w5hqaxhbbQ3jtC64deP4amscH5hubct4y3A78z2hxpntVRNrbOXEGls1sdpWT6qxVZN62+pramz1Nb1t9bXVtuaa3uYM+LUy3jW29vqmZd0NvW3d9TLbvQOz7Qy3tmsC031Tb1svwz25dzatTI6KAiiAAihgGO702zJEuDGwdGLAAAzAAAykxEDFDPfggi0emndLrY90K7qtKHfRdPtod2C+FfVeOrLalo6U4S5YvYtyK8JdsGWjtZbpLli9It3hEhhvH+WW4ZbR1s8y2tW2YoKi3WGk25nuapPp1qJIt1smBeZbUW9FuVdfq3WNrb2ut/t57XU1tkZR7uuCyLYi3c58h+v1NyrKXeMi3BtchPtImsQogAIogAIZKYDhxnDTKEypUUgkLv0vE5qiKQzAQKUM96LBBdNSO1hp5bFF6eXDA7O9RFFul2JebXVXBdFuF+FWirmMd5haLrMdRLu1DqPdinK7pWCNY2uCiPfYgksrd6nminArxTw03kGKebVLL/eme6VLLQ8j3GF0uynFvMall3vzHUS7w7TyiOl2EW5Fu13EOzDeGbUzOSwKoAAKHPYKYLjTb8sQ4cbA0okBAzAAAzCQEgOVMtxKKQ+Wgi0eUrDaIeF6WMFqh+WDSHc4nlvp5UuGy3CHke7IeG6ZbhfhluEeGUS7NaZ7uUstV3p5jYt6u/TysUGku2FcwaWTF1PMlWauReO5i2O5o8a7OkgtDyPdSjF/75retkZjul2kOzDeTSnmPrU8SC/347nXuUi3xnXXHPYNYgRAARRAgawUwHBjuGkUptQoJBKX/pcJTdEUBmCgUoZ70SBFuPO2qGi8o1HuoJDaEhntouku2FJFvd24bhVQCxeXXh4UUNOYbjeuO4x2q6BaU2p5IYh2j1Oku8ZFvF0xNTeuOzDgQWp5pJDaxKCIWjG9vBjtVsRbpjtILZfxltl2i8Z0u0Jq4VqF1DSm+4ZwbPfkI03GmxcKoAAKoEA2CmC402/LEOHGwNKJAQMwAAMwkBIDFTPcg/O2UOO4B+dtsdYuwu2rluetNox0y3C76uVuXHd1kF4us63x3GH18mIFc1exPBzTPapgy5VaHqaXa1y3iqfJgDeOK7jK5Q1hBXMX3XZRbl9ELYhua3y3It6rtHbjunsHY7pVRE3mO2K6NbZb1cud2XZjulVMrSm93JluVS+/URXLiXBn08zmqCjQMQX27dtnO3bsLC7qfD4cXgcPHizes+5/9+7dPeK2MdwYbhqFKTUKicSl/2VCUzSFARiolOFeOChvWhTplunWeO6i6VaKeTiu2xvuWjemO+8Mt8Z1L1WKeZhaXjTeinaP8Knlfkx3MHVYU6Q7rF6uCuZu2jAZ8HDaMBVTC4uqaYowjenWNGFu2xVQq3aGe5XM9sSgerlSy6Njul2qeThtmK9g7qYO8wXUtL6RKuXltOplBuYvWGh79+4tZ3f2QYEOKzBy9Fj7f//36eJy1933dPhY3emD8+YvKN6z7v8nP/1Fd7r8Fq8Vw51+W4YINwaWTgwYgAEYgIGUGKiU4V40MBcabpntYHFjuhXxVpq5pgvT1GEu0q1x3SqkFlQwVxE1P22Ym697ZFhAzc3RXbD6MM3cFVJz6eWB+fbRbhVSaxxTiBnucH7ucLowN55b295wK9KtFHNfwXySxnWH83WHVcs1nnuNxnRfWx1WLw+j3i7SXWPrrg/MtiqYd8XX7Nlz7PEnnurQsnhxbaq39O7UadYr19uZgc9/6Wv2wIMPp3p8DoYCUQUw3EFnA4Y7faPaUwIZGO6UGlk9BQjugz8WMAADMNBxBipluBcOzNvCgYWmKPcgpZZrTHfBjeuW2XbThsloD622JUOD8dy+enmJ4fbVy2W8FfV21cuDCubL3VzdSi3XdGFhmnmxenlNOE+3xnRXB9XLwyj3SpltV71cKeW9bZWPdvupwsJ5uhXdLqaXy3j7cd1uTHcwVZimDNP83GvDcdxKL++Kr0GDh5VEu6IRv7a2r7t+cqq3dG6fC0quJV9zlB06dCjVc3AwFPAKYLgx3LQbWm83YLgx3ES2YAAGYAAGUmKgcoY7Z4HpDqLbC10RtYItkvEOK5b7Sua1inYPC8Z3BynmwbRhMt/Lxn3f1j46wNY+Nsgt6x4fZG55omm9/olBFiyDbf2Tg2z9U4Ns7f3nuPHcLto9zqeXB8a7MRzPvSKMdq901ctlwIMq5kozL0a6ZcDDYmrvTQrm5Q5Mt6qY++rlgfFee92RpjTzrhrh7sqGW1HuAwc+8P6INQqkqgCGG8ON4cZw05BMqSHJl6n1LxP6oA8MwEDFDPeAvC0YoCh3YLxltJVmrvTyoJBaEO0OIt3ecAcp5nXhPN0y3Nvn/KvDDe+1D15gDUotdwXVqq1xbFBMTWO6ZbaLxrtouH0RtZqwiJrGcgeGe9U11a6Imiuk5iLdoeF2pjsooLbGVzDvgRHuG268qcPPIemDf/v7oyUR7n5XDkzajd+hQCoKYLgx3LR/Wm//EOHGjNIhAQMwAAMwkBIDlTLcC/rnbb4z24VipHuhUsplvAcHke5gyjAVUwvGdS9xke5wyrBhSjGvth0LX3YN7g3PjrX1T19l658eYevcWttX2fpntIywDc9cZRvceoRt+s9Es0MHbc/yqdYwpiYw3DLdinT7AmpaK6U8Eu1WpNtVLr86qFzuIt0TgrHc3ngryl1SvVyp5X7aMI3lDqcMS8UlfAQH2b9/v/3qtDNKzPB3vvsD27x5c+pXs2jxYrvrr/faW29NMRVQ44UCWSmA4cZwY7gx3DQkU2pI8mVq/cuEPugDAzBQScOtCPeCgVoU5c7ZooEFW6Sx3aHx9pFupZjXFhdFuYNIt9LLdyz8r2uDLx1zrKl6ucZ2Fwup+WnDXDG1YK7u+tHB2O5di191n1t9z9m23EW5C9bozbcz3UH18hUu2l0TGu8aV7ncVS2X0XZThjWll6uI2qpJ1W4c9+prm6YNc4a7GOkO0syzMg5ZHlem98/nnV9itquP/I6tW78+y9NybBTIXAEMN4ab9k/r7R8i3JhROiRgAAZgAAZSYqBShnt+f6WU52xB/1xgugcUbIGmCpPhdlHu0HiHFcwXDc05061Cas58h9HuJsN9TDBHt0y3pg3zy4jAaKuQWv1IP2VYwVbf/XvXiN9V+6oby718dI0tHxtJLy9Gu8Npw64uuDRzV0htvIx3MJ5b83QHc3QHFcybxnOHBdSuCVLLVcF8rSLdYbQ7cwdh5r4TyxsabMHCRbZx46ZOR4mvHDC4xGwfUVVjK1euqsStdPgcmlJs4aLFtmnT+2Ud4/3333dTkW3dtq2s/eM7aZz5mrVrTdMtKUJf7nnjx/E/67np+tOeGm39+g3uPrdv3+FP1WPWKq7X0Nhoy+qXl818Gobbs7Nt+/ZOa5kmR9JDz1tMbt26teTamBasdZOJCW/SB8OdUiMLqJqgQgu0gAEYOFwZqKThnq8ItzPeQaS7WETNme5cmF4eThkWju2W2daUYS69fGi+mFK+bMwx5iqYuyi3N9350rm6R1bb0jDarSnDdi9/16WWr779NKsPK5drvu5GN6a7aTy3G9OtSLePdstsu0Vjuqtt1dUayx1OGaYot7Y1ZVg4rltzcyvNXGb7PWe4s6tSvm/fPrvjzrut91HH2v9+4rMlBvnjn/q8/fDHJ9nkm2+1FStWljS82/rh6onXlBzrq9+osqVLl7X1sQ6//8abb7louiLqWjSmO/7SFGb+/csuv7L49jvvTrU+519kRx/zffu/T36ueN1HHvVd01jwPXv2FPfdtWuX3XjTLXb6GWfZN3sVivuqKvu3qqrtvvsfbLU6ujozVKH9Zz//lX39Wzn7n49/puQYOo4qrPcfOMR1ehRP3MrGjJmz7I/n9LGq/JHFY+k+vnPscdb3igG2YcNG15ni711rGafWXjLsE6+5zn556un2la/3Kh5X16eOk9//4c/OoLZ2jI68d/OttxefUTnXee11Nxb373P+xYmaRZ/75X2D566hDqojoOegAnu+qv7nvvg1+8Upp7nvRGtV7jtiuGWK9V369eln2jeOyBfPqXPnCt+23/7ubLv/gYda5cdrmgVHdXVL7cKLL7PPfP4rJdcmrs86+xybO2++48ZrpTXTgtH2aantg+HGcBPZggEYgAEYSImBihru/jlTpHu+WwfF01ya+aBwXLci3apaHlYw11juknHdQ2Mp5dF5uouR7uog2u2nC3NzdBdMhnvNA31ce3fHvOesflQQ3XZzdY+tcXN0N4xVITUtmj6sxhpdIbWgWrmrYB5GuV31cjc/dxjlDqcMC0x37+JUYW6ebjemu8a3s1NdNzaucA39aAO6pe1Tfv2bss+tcdTR43zxy99o0+CVffAWdnzwob+VnFMV1OOvuEl6+b+v2m9++/uSz0Wv22+fedYfXMT4r/fe70yy/31La0X2k1733vdAm+eKHvMLX/56m50UMmif+PQXWj3ul776TRsy9KqSfXQvLb3mL1hoGmcfvZak7U9+5ot26213tnSYDv3+7D+eW3JePaPWXqee9tuS/dV5En/Fn/u/n3vevn3090o+l3R/f/jTebZz56744dzP8WPedfc9ifv5X6qz6Ucn/LTNc+o6ZMjXrlvnP9psnQVHf3vksWYdbnFN1CH305NPKbkHDDeGG8OdUmOqJSH5PV8yGIABGICBihnuK/M2T4tSylWt3FUtb9r21cvdeO7BYfVyN1d3wVUxD9LK87ZjQVA0benoY8xPGVY3vNqN5VZqeZ2MttLLtVZ6uTPeQWr5spHVtnf1PDt08ENbedPPTeO7neEeXd1UvdylljdFu1eM03jualvp0sqrgzHdbo7uoIK5UsxXTextqydVF+fnVpq5zLYi3W59bfoRbkX4FNWON6pb+rlcw/3U08+WRG0VLZs6bXoz05D2LzpiuFu616Tff+JTny9bK0Wt58yd1+wWFRlPOnZrvzvhpJ/bhx9+2OxY+sUNk29u9/H8uVoy3P995TVrz73qeCpSl9arEobba1DO+gc//Emi/u0x3FPeedc+/bkvt+tZffmr37Kly+oTZU2bo8cef7LkO1uOLn4f8dkTXlOmzbD6xhWmoSH6n0bbpvNtGyLcGHG+SDAAAzAAAykxUCnDPe/KnM2/0ke3tQ6mCQumCsvbwoEFN7bbp5lrXPdiRbyHFNziKpcPLtj2BUHRtCWjjrUlinC7KcOCtTPcw2W488G4bme6C6bx3MtGaUx3wdY+crlrX26f8YTVj64ODLdLL68pztOtSLePdjeMV6Q7Eb85WAAAIABJREFUMN3BusbcuG5VLp8YThumlHIZb5dermnDIlOGXROY77Qbtf/813MlBkDp0U8/86xpXKkamypsJtMoY3bOuX+x4SNGt3kJcbOmyOtrr7/R5ufS2KEzhltRbqWCv/nW27ZkSZ3TIZ7y6w3Gpz77JZdm/uhjT9jMmbPduOZx4yc2iw6On3BNs9tS6r7M7Mm/ONWla7/40ss2e/YcW736PVu1arVNmfKuS4/25/JrpYzHX3pOSn/2+2j9la8d4VKh1cGhlPFnnv2HXdF/kGloQHQ/bScZ7g8++MCO+s73S/b98U9+ZjKMO3bsNL2vceZKp48e75jvHe/ei19jR36ulOFWp4iGEfz90cds+oyZ9u7UafbAgw+7NPzovWlbhjT+Ktdwq3Dg939wQoleSve/auQYe+HFl9x4e30XL+/Xv2QfnVeZFUmvNDnSGG1xE71nZS5MmHStvfra67Z4ca27zmuuvcE0LCS6n7Yx3J03pj3V3GO4U2pk9VRAuC/+eMAADMBA+QxUzHD3yweG2xlvmW+ll+fMjet21csV7VblchVRKwSF1MJiaq56uTPeTRHuJaOOsVoVUtP4bpnuYXkriXSHRdSWaa2x3K6YWrUtG1Vt+9cvtUMf7LeG634cmO4x1a5y+fLRTUXUnOGOVC+X2W4cXwgj3IHpdgXUwiJqGtu9emJvZ8JLCqlNqrHVGUS4lXIdbTw//8KLSW37sn83Z87cZmM/dXyNgb7t9rtM5jI6FrrsA5e5Y0cMt6L2KjCW9JIeUX20LZMlo5v0Ov/CS0r2P7fPBc120xje3bt3N/t9/Ben/eZ3JcdSum/8NWLU2JJ9VP29pXH2KgZ24s9+UbJ/kuHW76L3fObv/5hopDW2WanE0X1lWNN4VcJwKy26peeuonBK6Y7em8byx7MMyjXcDz3895JjaZiA6g0kvdThFc8uSOqwSpOj0WPGl1yfzHdSB4+uV50uQ4ePLNkfw13+/8rDrV2B4cZwE9mCARiAARhIiYFKGe65V+Rs3hV5m3tlsHYRbkW5i2O6g4i3ItxNxjsw34vCAmqar3tHGOE+uH+PHdy/u9mybdY/gmJqSjOPVC5XirlSyhXtXvfkENde3jrlATe2W6nlPtotoy3j7QqpKb3cjecOK5ePbxrPvVJzdvvK5VprTPcERbfDacMm9XYR79XXBNOGJTXQO/M7RT6jpkKN/c68rr/hppLjRY/tt1UY6tl//Kszp2nxsx0x3K2Nu1U0N1pATffQ2nRmui9/n1orit3R18N/e6TkWGPHTSg5lMxfPEVZkdrWXuOunlRyzCTDreJY/h4U5Wytoryis35frZOK1LV2PS29VwnD3dpz13WpUn+8mF18LHm5hlvMR3VKynyIaqGiZdH9VdSto6+2ONJx48NK9D1u7UWVcgx2uR0HGO6UGlnlCs5+fDlhAAZgoOcyUDHD3U9GOzTbMt3OaAcp5q5yef+CG9vtpg6T6XZThuVcpFtF1Fx6+eC8Ndx2tu2qn2a7G2aGy6xg3TjLDmx5z7U1V/31PGe2XYr5VUERNWe+RwbR7mWjauzA5lXOrDdMPM6Z7uWjasL08kIwbZjSyjVfd1hETZXL/eKql8twa2z31aXRblexPDTeLtKtcdyT0i+apmrQ0Ya90l6V1tzRVzmG258vWiG8o+eLfy5tw63jRw2orl1TJbX0Uhq3vz+tO2O4X3/jzZJjKf04+tJzip5L4301Jr+1V1uGW6nF0WMqytvaSwX3ovuPGXt1a7uX/V5XMNy6WFUMj97fnXf9teQeyjHcmu4regwNsVDF+NZeqj4e/Ywi4h19tcVR/fLlJedSJ0tLGRz+GjDcPfd/edrtNAw3hpvIFgzAAAzAQEoMVNJwz1WEW8b7ypwp4u3Syv24bs3R7ZaCLeyfN19EzRlvmW83P7fGc+fNjed2a6WU58O08rw13Pwbs0OHbNeyd12aed1wpZmHBdRcITWllivSXbAN/xzr2qCbX73DVSx3Ue4xKqLWZLwblGoejuducIa7xhoU5S4umi4sMN1KKXcF1DSWO1w0ddjqiTVuijDf4E1rrarJ8QiuDMHFl/Z1Y5Pbex6ljKs696gx49y0VxoDKmOtolNRA+G3kyLdMnEax1zOsmXLlpJLzMJw56pLo5OtGe5Zs2aX3Ge5hlvp2fG5rTVm2uukddxwv/32OyXvK128rVdbhltDAqLnFAeK9La0qJJ5dP9LL7+ieAmdeY5dxXBrurHo/anKe/RVjuFWDYToMb573I+ih2hxOzpNmT7flgnWgTrCUTxL4bjjf9LiNfk3MNwY7nKNOYY7pUZWuYKzH19OGIABGOi5DFTKcM/plzMtLq38irxby3gHlcvD8d2RQmoLNJZ7YDhd2MBgurBFbrowzdNdsNrB3nxrnm6Z8ILVDsnbztrXXdtyxR2/D1PLgzm6g2h3ULlc47nrxxxtH+zYYB/u3mrLxx9r9SOrg0h3WEjNz9Mt062lOF2YpgpzlcvDacPCCPcKX8W8WEgtTC1XqnkGEW7dpFKVo4Yguq1poTT2Om4GfcO7PWsVI4un1mqsaDwqK2MZvYbWtuPTfnUnw61iaypEJ41VhE33+dkvfNW+94Mfm6ai0hK997jhVvp29H0dq61XW4ZbQwqix2zvtgyof3XmOXYVwx0fe/27s//kb8+tyzHcKloX1fGMM39fcoyWfohPyaaibkmvznIUTzlXVL+tF4a75/4vT7udhuHGcBPZggEYgAEYSImByhnuKpujlPKi8Q7Nti+e5teaNiycOszN0e3SywthMbXAeKuCucZ1u2j34EIQ8Q4LqK24I2h07lz0qtWGEW5FuetUuTycMsyll48o2KYXrnft000vXucqmGtubrdEpgtb7qLcNcGY7nCe7mJBNUW6Zb79eG6Z70ike2UY4V41Mf2Uct+wvuXWO5zZixqD6LbSlZV+rghaZ14yB/Fq2Wq8R1/tMWr9Bwbj6P3nu4Ph3rt3b2IV8qjeSdvNDPcjj5UYuYsuCSrney2S1m0Z7ptuua3kmEnX0drv1DnjX515jl3FcP/n+RdK9IjPN12O4Y5rqqyBcl6/PPX0knPLuEdfaXEUv75LLusXPU3iNoYbw12uMcdwp9TIKldw9uPLCQMwAAM9l4FKGe7Zl+dtTt+cSylXpFsp5UEhtSC1XJFuFVJzy4B8WL08Z26aMM3b7SLeYaTbpZfnbbHMtgqqhWnmQdXyvO2un2Z26KA13HRaEOV2U4cFRdRcpHtEPkgtH3eMi3Ar0l0/5ihXwbx+VLUroLbMRbqDquXOdEci3UF6eWC2Na67mGKu4mmao9sZ7zC1XCnlE7Iz3GpVb9682U0DFI9CRw2WqnB39vXjE08uMRKaWiv6Ujp69JytbXdHw93n/Iub3Z/S+qW7qowrpT/pnuOGO965cOppv43KmLjdluGORzvzNUeZnnm5yzvvTi2etzPPsasY7kcefbzkWfzpz32K96eNcgx3PBNBmQvlvI7/0Ykl545XNU+Lo7v+em/JeaR9Wy8Md8/9X552Ow3DjeEmsgUDMAADMJASAxUz3H1zznAHpjvvIt1uPLc33jLcrpiaItzBdrGSuTPcMt/hdGEy3zLdSjEfEpure2jeVt4TpOhum/NvF+UO5uouuPHcbky3r15+VcHef/V210bVmG5FtzVf93KZbkW7ZbpDA75cBdTG1DTNz60x3WPDtHKlmfvUchftDsd1a3y35ujOMMIdbWBrzmAVWlKDPj49kYzgSy+/Et293dt/uaB06qx4xWYV7lLRqHKWNWvXlpw/bkLjKefauRyTFD1ommO4NdVS3EzLBG/dtq14Sum/dt06u/+Bh0r2jRvu+NhbTVvV1qstw/3WW1NKzhnv0Gjr+NH3O/Mcu4rhvuHG0qr7Yif6Koel+Fh8dTiV8/r6t3IlzyJazDBNjuIp7z864adtXh6GG8NdrjHHcKfUyCpXcPbjywkDMAADPZeByhnuqsBwX15ls12kOyig5qPcGts974oqV1DNR7td9XJXSC3vItwLBgYR72Cubk0ZFkS833tsmK164HIX8a7VWO6heduzar4dOvih1V97cjBP9/B8OKY7XKt6+YiC1U84zlUrV9VyTRumgmpaK9IdmG0VUgvGcTvT7YuohWs3tjusYO7Sy/1Y7quDCLeKqamIWqVfa9asMU1JFDWJmlO7My8VEose77rrJ3fmcCWf7eqGW1W8o/eu6Z9aesWNWtxwNzQ2lhxLx1XRttZebRnu1avfKzmm0po/ilfccLc1P7yi+1Fdo5F2f/3lmGO/r19rHvXoce+7/0H/lluXc0x1nkSPoeEZ+l/Y2ksF0qJTkinrQR0x/pUmR9Iqen2qiL5nzx5/qsQ1hrvn/i9Pu52G4cZwE9mCARiAARhIiYGKGe7Lcja7b5BWPqdfYL4V4Z4r8x1GuVXFXFHtoJhaOHVYaLid+Q7n6Hbp5aHZXnbtKWYHD9rBA3utbvwP3dhume5VDwbjYrdOe9JqlVI+tGBLNDe3H8+t6uVhpHvz2w+4xqnm55bRdqbbRbuVXh4Ybme+NZ5bPyu9PDaeW2nljeGycnyNNfpI94QaV708sfWb8S817jraIG9rqqjWLkcVvlUYLHq8/77yWmsfadd7Xd1w//GcPiX3rih2S6+2DLc+d+z3f1hyPBX1am2c/YBBQ0v2j8/Drbm9o1kNGm+/ZEldS5eY2e/jhrs1nXQRWRhuZU/E6w2ocn70VY7h1vP4zOe/UqK7UtVbe8Wrox99zPdLdk+To3379tnnvvi1kuu7597gb1nJSSM/YLgx3OUacwx3So2scgVnP76cMAADMNBzGaiY4VZk+/KczXbr0HiHY7qLptvP1e3Sy0Pz7cZ155wR93N0LxxQsKCKed62zni22Jx8/437w2nDVLm8YPvWLbVDH+y3+gkn2JJh+SDS7dah8Q6nDFs+6cduv33rl7px3EsV4Q6j3MuK6eUy3qHZ1tRhfkz3uMB8N0TSy1Wx3I3rDsd0a1z3R/GKz9Mbj8pu2vR+qybPX/OBAx/YKb/+TUnD/otf/kab0T7/+XLWXd1wqyBVtLPhgosuTbwtmTQVsovuG49w64PxedS1v8zYjh07S467eHGtnX7GWSXH075xw60PxaO6inJ/8MEHJcfL+gdNJRe9dw1vaOmlVGsZ0uj+5US4z/z9H23jxk2Jh9X9xoc+aGq7eGdG3HBPvOa6xONpaEP0+lSBPDqMIPohZZXE08nFQvSVNkeqcB+9PtUTWLlyVfSUxW11yky++daS/ePF5Io7d7ONKdNmWH3jCvds9D+NNkvn2ywYbgw3XyQYgAEYgIGUGKic4c7ZLEW5Q+Otsdx+mauId798sYiaSzNX1fLIXN2uYnmxmFrepZjXXX2iHfrwA9uzepHtf3+VHdy325aMOc5NEaaCau89Otg1Gze/9ZAz2yqq5o23It1LFO12ke68bZ0eFABb87fLw7m68y7SXT+yEJhvP12Yj3g7w10I5+kuBNOGjasxX0St0ZluVTAPqpin3X6VsdG0YBqznZRGKkMSN8kqshR9fe2bOfvqN6qsz/kXmQpELVy02BVg0z5qnCtN+e+PPmY13z6mpJGuBv7Q4SOjh+r0dlc33LfedmeJBor2T5s+o2jklDascdTxwnLSKslwyxB859jjSo6pfZWCrKJbp/3md9Yr17vZ+95cJRnuFStWNivcdsz3jjcV7dLzjL9qa5e4zgEZ+ug44/h+7fn5xptuKblmFZV74smni4dQ5404u7xf/5KIvL+vcgy39lVkd9K115vmylbV7127dtnUadPtl78qrRCufV966b/F8/uNeIVvGX/ppPoDu3fv9ru578OXvvrNknvqfdSxprHYXlM9y1defa2Z2VYhvfjUeWlzpCyWaAq77lep7489/qT7/qqjQc/2qaefddPYeZ39+oSTfl681+68geHuvMGOd1JguFNqZMWF5ef0YUVTNIUBGOjqDFTKcM+6NGezXIQ7Z7Mvk9nWWG6fYq45usMx3VHjfWWQXq5iavP7B1Hu+T7FfEDONk951LURVz10ha15crTb3vjK3S6tXNXLFw2vtv3vr3RjtOvG/sCllgfp5Xmrc2O6fYp5wRpu+Lkb87131fzAcGsKsXBMtzPdbsqwSIr56II1aGx3mFqusdyqXt4wthCYbo3rDtPKZbrTfkXNmlKJZYpP+tkvTanJGrvt54f2DWuZBhno6EtRav9+dC3TF0/Jjb7/i1NOMxmnNF9d3XAr0pykiSKaiqDGU4+jeiUZbmk3f8HCZiYt+rnWtpMMt44Zj9z6Y4iRbx/9PVNEU6x8+nNfLnn2MqtpvHQcf87oWjqJt2jae/R9v12u4fb7ay3DGTed/v2f//LXibcVnzbM76+1Op+iL02ZFn3fb0tDadpSdfp//uu56GHcdhYcXTlgcOL1+etsbY3hpo3SUhsFw43hJrIFAzAAAzCQEgMVM9yKbl9WFUS5L4uY78tzNudyP11YlZs2rKSQWjS9/Mqwgnn/gi0e/UM7eGCf7Vu/3BYMKtjCIUfaga3r7MO9O6x21Hdt8SBNGVawdU8FRnzTq3fZkqF5C6YOKwTjusM0c1+5fPvcf7tG8er7+tgyGe4RGs8dLuHY7qCCeY3VjwnSy5crvXxssB0UUAui3I0u2l1jK8Jpw5q1vDv5i6jhbq1Brff+9xOfdRG4+ClbMtytHe+ss8+xLVu2xA/V6Z+7uuHWDU6YdG2bxkbGLz7tU0uGW8dsbFxh8WJ0Uf1lVBWtVDZD9PctGW5Fe4ePGO2eeXT/trbTMty6p3iac0vnPu74n5im64q+X47hVmeSmI5+Lmn7z+edXxKtjkKqDqN4Ors/RtxwK3tBkelPfuaLbZ5Tx1DxsviUedFzp82RDJOyVPz1t7aWJso68PtguDHcGO6UGlMtCcnv+ZLBAAzAAAxUynDPvLTKZl1a5aLbSi0vRrv7Ks08iHgryu1Ty+e6SHeVBdXLc6bK5fNclFumO2cbX7vPtWHfe3RYcTz32n9McL/b8OItLsq9SHN0D/+2Hdi23j7cs83qRh3jiqc5061Cam5+bp9anrfGm09z83fvrn/X6kaoinnelsl0jwgql2vKMBVRc4uqmCut3I/rDgup+Si3m6vbFVELTHe0wZ3Gtp/+q7XIqhrVv/3d2S7tNumcMllDho1w80j7BnhLa0UKp8+YmXSYVH735FPPFE2ArmH0mPHNjqsU4uj1ae7p1l4ab+v3l0FraeytjqH0ar+v1jLB8ZeMl4pSxVOMtb+MtqLHXqNoOnhrhtufY/bsOXbD5JtdqrXGhyvlWc94585dbpf42Oik6Kk/ltZKNf7ucT8quafo/fntn558ij3w4MOJwxKix2vPtnS++NK+LZ670PtoZ0ilp/Ty16J1OYb7rrvvcUwroyPJeGsOco1VbuulavFKQY9Gx4+oqrEXX3o58aOKTv/wxyeVXG/02nWcX512RrNMkvjBsuBIqeOqxK4p5qLXpG0ZbGVhKO1drzPP+kNxH11vT3iRUp5+W4YIN0acyBYMwAAMwEBKDFTMcF+Ss5kuwq0odxjpdtHtKhfhdqbbGW9Fu4NI9zxXRC1vczU/t8ZzuwrmShX/nh3cu8v2b37PFg6qNje+e2DeFg87yj7Y8b59uGur1V51TGC6h+Rt/b+ucW3KDS/caItdlDuMdA8rWJ2i3JHx3DsXv+r2XXnH74Mq5iOrbambKqwQVjAP5uheNjqcOmxMwepVvTxcGpzx9lHuoHK5iqhl9dLYVVXFfvqZZ02pr4qE3nHn3abpmJbVLy/rtGqsy3BqrKvMlyJwqrYsEyzjpqmOeDUpsH37DmcMFZVXpPndqdOKxrhpr3S34uPxFy1eXNYJNKe2TO3fHnnMZFRl6lVp+7XX32jTGJZ1glZ2kkF9/ImnHE+KEOucqnbf3lc8TV734V+K6M+dN9+dR/PMqxBge1+qgVBXt9S2bd9e1ke1nzqrZHDHjZ9o6vjRtG76LrbnlQVHMvP6Lmuudz1nfX+Tajy05zq7w74Ybgw3jcKUGoVE4tL/MqEpmsIADFTUcF+Ss1mXeMOtaHcY8dbYbhVR8+viPN1NhdRkuIPpwvK2/oXbXBtwzdPjgurl/fPFKPf6525w761/7sZwnu6cLbnqaPtw1xZnxpcM/7abp1tzdReXMNKt1PIVd/7efX7noletLpyr20W43ZjugqtirmnDNH1YEO3WOox2u0JqmrNbRdRq3PhujelWWjkvFOioAjJMKm7nI5eKpMpoHi6v1gz34aIB99m6Ahju9NsyRLgxsHRiwAAMwAAMpMRA5Qx3lc28pMpmXppzi4qoaTtILa+yOTLfYYS7WFAtjHS7Md398i69fMHgo+2DXVvtg+2bbMGgb7v08gX9CxZMGZazRcOPtQ93b3PmevHwo8PU8pxtfOkW12Jb948Jroq55upePCQYy107LB9EuhXxHl6w3fVTXWp5482nWp3m6o6M51a0u97P0e2mDtPPNeGUYRrLrSnDCqHZDiLdDeMKrbcWeRcFWlHg+htuKpptmW6lDR9OLwz34fS0O3avGG4MN43ClBqFROLS/zKhKZrCAAxUzHBfnLOZF8twNy1BarnGdgeVyzVlmKLcblGUO5yne06/nM29QoY7Z2v+GcyXu/Zf15uqlwfjuvPmqpeHke71LwYR8LX/mGSLBhds4cCC1Y5UGvpOO7BljdUO722Lh0Qi3EMLrpjaElUuH1aw1ff+xbX6ts/5tzPcTaZblcvD8dxaO+PdFO1WQbWm1PKCufTycYp0Z5dS3rHmKZ/qCgooNVpp1i1FqzWntIYHxCuKK9X/cHphuA+np92xe8Vwp9+WIcKNgaUTAwZgAAZgICUGKmW4Z1xSZTM0jltRbq0V3XaF1IL5uYNCakGK+RzN1e3m6c4XTfdcjececKQd2L7RRbAXDDnGFVLTuO5gyrBcMJZ7QN6Z6w9lrretd9XLFw3KuUj3xteCsZ9rnhgRzNXtTLfMdj6cMiww3Jqre8+q+W6O74brTg4i3GGke9lVhaYK5kord0tgvpeHc3XLdGtct9LJtd1IhLtjrege/CmNm/cp4qp+raJ0F11yuSsWp4Jx5/a5IHH+81+eenoPViX51jDcybrw2yYFMNwYbhqFKTUKicSl/2VCUzSFARiolOGefnGVzXBLYLqd+XZp5U0Rbl/FXJHuwHBX2RwZb0W4++Zt1ZNjXQtr3Yt3uGi3G9N9Rd7ma+owb7w1T3f/vL0fztHdeOd5tnBg3o3nXjLmeDt4YK/t29Bgi4bUNJlupZaHY7pd5fJheVv9cF93rq3THrclMtvDq60uTC1XinlQuVzraqt3qeV+THfBSiPdwVzdTU1DtlDALGq4vfFua1195HfKLoTXkzTGcPekp5nNvWC402/LEOHGwNKJAQMwAAMwkBIDlTLcMy7qFRpuRboD8+2mCnPjuqtspubpVsTbzdcdTBXmjLevXH5Fwfa//54d3LfbFgz/vrlx3Zoq7MpckFp+Zd4ZbWe8BxZs3/p6O7h/ty0edZwtHJC3RQNzznRvfvvvrsW3+m/9XVr5Yk0dNiRvi5VWroj3sHBc9/Bq27d+mR06sM+WT/yx1Q3PB+O5rypY3cjS1PL6MM08iHYHRdRUUM1FvMNCatk0Mzlqd1ag/8Ah9pWvHVGMdLdkuDWt04hRYw+LatNJzxPDnaQKv4sqgOHGcNMoTKlRSCQu/S8TmqIpDMBApQz39IuqbPpFOQsi3eF4bhnvYpQ7qF7ujPdleVfBPFq1fMXDQ137asOr97tot0sxv0Jju3PBtGFuPLdMd85W3N/P7bvpzYeKU4a5KPfAgtVdfaId+vCA7V1T6yLci4YUbJGMtjPdmlqsYEuGVtuSoXlb+3hwzs1v3l9quH31chnvYvXyoIL5cjdXd7UrolY/psl0RxuHbKOAV0B/g//z/AsmU9nn/IvsZz//lR3zvePd/OnDR4w2TT22dOkyv/thudYUaPfe90BxaWxccVjqwE23rACGO/22DBFuDCydGDAAAzAAAykxUDnD3csC0x1EuKdfnHNjupVm7sZ0u3HdSi8Potwlc3X3Ldje9cvt4Af7beGIH5nMdrAElcuDKcOComrzrszb7pUL7NAH+23J2BPD6uV5W6gIt1LLB+Zt6/Sg6NTK+y6xRYMU4Q4qlrtItx/XPSxvtcNr7MDm1S4Nfc+qeaZl76p5tmvp29Zw7Ym29Kpql1IepJdrOyio5sd1Ly9WL2dasJabyryDAiiAAp1TAMON4aZRmFKjkEhc+l8mNEVTGICBihnuC6ts2oWKcgfG243nVpq5Usqd6Q6mDJPhDqYLC9PLL89Zwz1hxHrK4y66XRzXHUa4neF2Y7lztvyOPq7ltnnaM66YmsZzzx8QGO0Fbp2zpZN+YXbwoO1umO2KqS2W6R6cN0W7g0i30sqDKuarH7rMPti+wT7cs90tB/ftcsff+NLkcLqwIL18qRvLLcMdLJqbW1XMNZ5b27xQAAVQAAWyUQDDnX5bhgg3BpZODBiAARiAgZQYqJThnnZBlU1zZjtXjHRPD8dyuwJqxSnDVME8iHTPviyYp3v3qkV26OCHtnD0z8xNHRYWUXNp5f3yrqhaYLpztnPpVDt08KDVTfhFWEgtH0S5ZbxdlFvThOVt29znXcuv8Y4/u6nDFOlWankQ7Q7GdS/RuG6N6R5aMFUuXzKs2lb99Tz3uU0vTralKqZ2VbUb263otiumVhzPHU4XpqnCRjMPdzbNbI6KAiiAAmYYbgw3jcKUGoVE4tL/MqEpmsIADFTUcCvK7cZyh1Hui3I2Qz/LbIdR7lmuiJqmDAuWZbdd6NqTm6f/q2SO7jl9A6OtaPfcfnk3lnvpjWe5fbfNfdHmhRFvzc+tQmqKdCvCvWCglpzV33CaSkXbzrq+pbqzAAAgAElEQVQptlDR7TDKHRRRU6TbLyqkFhRTUwVzb7g3vjjZVS9XMTUZb1dIrVi9vNqWjdRSMBVPWzaKCDemAAVQAAWyUgDDnX5bhgg3BpZODBiAARiAgZQYqJThnqoI9wW9bLrWSi2/MCigpnHdMt3BlGHB+G43V3c4R/fO+llmhw7aovG/slmX++rluWC6MGe2/XjunG2b/4oz0UuvPyOsXu6nDAtNt5syLBeY7gEF27H4dbd//U1nutRyZ7xlvrUMzTnTvVjThblpw4Jod5PhvtHqhivCXShWL3cR7xGB0V4qs63pwtyUYUS4s2poc1wUQAEUwHBjuGkUptQoJBKX/pcJTdEUBmCgYob7/Cqbqgj3BTLbPtKtMd2B4Z5+cThtmNLMFeW+pMrqbviTa0lunfuKufTyy4JK5tqeo7m6wynDFOWunXiqM+Y7at+2uVcEEW8VUNNSnKdbEe5IpHv5LWe742+f/7ItHJRzUW5ntjVVWLjIbGvKMJdePjRvK8OU8o0v3mhLhgdmW8a7zqWX50vn6h5ZbUtdpJsIN5YABVAABbJSAMOdfluGCDcGlk4MGIABGICBlBiomOG+oMqmnt/LfKS7aLxlvlWxPJparp8vztm2xW+79tnia8501cuDKcNywVzdLtpdFaSZ983Z5un/dPvW3/LnoIJ5WFBtvqYL01zdGsPdP7oOqpbvXDbNGfVl1/7KzdPtUssHFdy4blUtLxnXPbQQMdyTbcnwfGC6vfEOx3QHkW4/V3dQRC2rhibHRQEUQIHDXQEMN4abRmFKjUIicel/mdAUTWEABipmuBXh1nJBrzClXKnlTdu+ermbp/uSXrZo4hku3Xv74ndctNuN6S5GuBXdrnJRb0W5F40+yQ59+IHtapjjCqj5Obrn9QumClPEW1FuF/Hun3NjuRcq2j0gZw13/sW1VbfO/GcwbZhLKc9FqpcXXLQ7SCuPRLhfuNE0pltL3fDq4jzddSqeJuPtiqgFU4Upys0LBVAABVAgGwUw3Om3ZYhwY2DpxIABGIABGEiJgUoZ7ncV3Q4Nd7AO0suDqcKUWp5zRtxFui+qsi1zXnYtsyWT/+ymCXPjui8Ji6k5463x3EFa+cY3H3H7Lr/7Uje2e27fnM0JC6nNvSJnwTzduTC13Ee5wyJqA/K2Z+V8Z9jrJvysOFf3QhVRc5XLC266MDdH9+CCrbg7qFK+4YUwwi3TrUi3jLfGc7tx3fkgxTysXK7x3LxQAAVQAAWyUQDDjeGmUZhSo5BIXPpfJjRFUxiAgYoZ7j5VNvUvYVr5+VU2zaWXhynm4fzcinjLcC8Yc4pL8/5gx2Zr/PsoW+GW0db4yChb6ZbRxfWqx8bawf17bc+aOpvTt2Bz+lY1Rbn75WyephBTdLufj3LLeIeLUswH5G3F/X1dK3D7otdszZOjbc1TY2zNU1qPtjVPj7a1bhnjtje/+YDbd8MLN7rpwoIpw4Jpw0oi3S69vGDLtCbCnU0rm6OiAAqggDEtWBZtOSLcGFg6MWAABmAABlJioGKG+y+97N2/VJmLdMt4q1q5jHdYvdz97Ix3lTU8PKrdjcjGhwYXx3OriJqbNsxXMfdF1LTWmG6lmPupwjS2e0De9q5b1q5zrnt2XFBMzc/TPTxML79KEe8wzTw03UtHkFLeLnHZGQVQAAXaoQAR7vSDBxjulBpZWfSGcMz0gUdTNIUBGMiSgUoZ7nf6yHAHplvF09516eXhmG5nuoOUchflvqy31d12kS2783Jbdldfq7+rn9Xf1deW3a3tvlavdbgsv7uf1d10js3umw+mDesbpJlrHPcct+SDImqKdrv0ckW6czbPFVELCqmpcnntqB/Zyvv72coH+tnKB0uX1Q9eYasf7GerHgqWlfdeaLXDakxp5n5sd62Mdzy93E0ZVu3GdLej7ciuKIACKIAC7VAAw51+OwnDjeEmsgUDMAADMJASA5Uy3O/KcPepMrc+v5e98xeN6Y6M63YF1FRELefm6nZF1KJzdWu6MFUvv6TKZmnasEu1qGK5L54WrOe46uX5INp9eVUwpltp5VoU4ZbxvlLbPrU8rF6uObrdUrCF/fO2cGBQxXzBoLyrXh7M0a3x3HlntN2Ybjc/d96lli8ZlneGuy4spBYUU8sHY7pHMIa7HW1ndkUBFECBdimA4cZw0yhMqVGYZYSHY6f/RUVTNIWB7sFApQz3lD69TIsz3Uot15huRbpdmnlQwbyYYu7n6b4wnC4snKvbG+6ZKp52Sc5mREy3q2J+aZXNCgupze6bMy1BermPdgfp5DLeSiuX8Q4qlzfN1b3AVS/P24KBMt2FYhE1TRe2yE0XlndThtUO9uZb83TLhBesVhHvYUEBNaWVB6nlQTG1drUe2RkFUAAFUKBsBTDc6bc3iHBjYOnEgAEYgAEYSImBShnud/ocYS6tvE+vYK30cqWVRwqpacowN23YBb1clFsVzN0SztOtgmozLg4XRbldtFuVy6tMhnv2ZbkgrfyynM3RtgqoedPdr8rmKKU8TDUPKpcHptvNz+3m6lYF85wtCKcOc+Z7YN4WyGjLgDvTHa41fZii3YMLQcR7aCEooibDPbTgltrhQYRblct5oQAKoAAKZKMAhhvDTaMwpUYh0bL0v0xoiqYwAAOVMtxTzq2yKecFZlvGWynl3oBHx3Qryj31wpwrqjb9wl42/aIqmx4WU9O2M9wuvVyGO+dMt9LLlWbu5+ouGu/Lc2FquaYQyxfTyzW2WynlfsowN6b7yqCQmoqpqYiaFqWYL5TRHqBod7C4SLebqzs024ObUsxVsbx2aGC43XhuN6a7YEoz54UCKIACKJCNAhju9NsyRLgxsHRiwAAMwAAMpMRAxQz3eb1syrm9AtN9XjCWOyikVhWklYeRblUxV+VymfCggnkQ5XbG+6KcTVeEWybcRbqDMd0ayx0sVTbzsmCZdZki3lU2S6nlGtftI92ucrmmCQvGdSvS7Yy3DLcrpqYId7BdrGTuDLfMdyGIcst8y3T7FPMhkbm6lV4+NBjXLfOtKLfGc/NCARRAARTIRgEMN4abRmFKjUIicel/mdAUTWEABipnuI9wZrtouvtUuQi3It2+ernWU10xNT9dmNYqpBZEuafJaBfHcwfR7pkXV5lbXIp5MLZbhdQCwx2kmc9xhjtML9cY79B0B4XUmqqXz7uiqjiuu8lsq5haEN1eEBZS8+nlPsV8kaLcbtE47iDK7ebn9hFvDHc2rWyOigIogALMw52J1yTCjYHNBCyMB8YDBmDgcGSgUob77T/3srfPC9PKzwvMt0stV5q50svdEhRPU5Tbje92U4dpPHcuiHaHY7pdtNuP5Zbh9qnlfly3i3grxTww3kXz3TdIK5+j8dx+jm6twyi3iqnJaAfF1MKpw1zl8ryLequQWjHNPBzP7VPMVbVcY7plvmW6XRVzH+nGcGMKUAAFUCAzBYhwp99+w3BjuDHcMAADMAADKTFQOcN9hL2tlPJztQ6Md3FM93lhlFuVy4tzdQfme6rSy10xNaWWB2O6Z2i6MB/t9qnlKqzmqpYH04W5cd3xacPclGGapzs03nHT7efqdunlofl283WrmFpgtl318gGFsIq50spVRE2p5kHV8mDasMBwN43pzmfW0OTAKIACKHC4K4DhxnDTKEypUXg4Rp645/T/gKApmsJAKQOVMtxTFOHWcu4RxbHcMtyB6VYF83CO7tBwK8odpJcHc3W7auUXhFXLi0XUwqJqF/VyxdRmXpwL08tVTC0Y161CahrXrXHcLtIdThtWrF7uTHeVzemXLxZRC8Z052x+ZK5uV7G8WEzNF1ELi6oNyjnjrYrlLr1cEW5XvTyoXK4x3bxQAAVQAAWyUQDDXfp/PY12DhFuDCydGDAAAzAAAykxUCnD/dY5vewtZ7gD4z3FpZWHkW7N0X1eOKZbY7s1N3c4bZgz3jLfPspdHNPdK6xengsql2tsd7F6eVC1XBHvYlq5ot0uwh2O6+6rsdw+xVzzdOfNjemOGu8rw2nDilOGqXp5MKbbpZZrbLci2366sMFNU4ZpTPcipZRrbu6hFE3LppnNUVEABVDADMON4aZRmFKjMI3eGo6R/hcSTdEUBro3A5Uy3DQKUQAFUAAFUCALBTDc6bdDiHBjYOnEgAEYgAEYSIkBDHcWzT+OiQIogAIoUCkFMNwYbhqFKTUKiaKl/2VCUzSFARjAcFeqSch5UAAFUAAFslAAw51+W4YINwaWTgwYgAEYgIGUGMBwZ9H845gogAIogAKVUgDDjeGmUZhSo5BIXPpfJjRFUxiAAQx3pZqEnAcFUAAFUCALBTDc6bdliHBjYOnEgAEYgAEYSIkBDHcWzT+OiQIogAIoUCkFMNwYbhqFKTUKicSl/2VCUzSFARjAcFeqSch5UAAFUAAFslAAw51+W4YINwaWTgwYgAEYgIGUGMBwZ9H845gogAIogAKVUgDDjeGmUZhSo5BIXPpfJjRFUxiAAQx3pZqEnAcFUAAFUCALBTDc6bdliHBjYOnEgAEYgAEYSIkBDHcWzT+OiQIogAIoUCkFMNwYbhqFKTUKicSl/2VCUzSFARjAcFeqSch5UAAFUAAFslAAw51+W4YINwaWTgwYgAEYgIGUGMBwZ9H845gogAIogAKVUgDDjeGmUZhSo5BIXPpfJjRFUxiAAQx3pZqEnAcFUAAFUCALBTDc6bdliHBjYOnEgAEYgAEYSIkBDHcWzT+OiQIogAIoUCkFMNwYbhqFKTUKicSl/2VCUzSFARjAcFeqSch5UAAFUAAFslAAw51+W4YINwaWTgwYgAEYgIGUGMBwZ9H845gogAIogAKVUgDDjeGmUZhSo5BIXPpfJjRFUxiAAQx3pZqEnAcFUAAFUCALBTDc6bdliHBjYOnEgAEYgAEYSIkBDHcWzT+OiQIogAIoUCkFMNwYbhqFKTUKicSl/2VCUzSFARjAcFeqSch5UAAFUAAFslAAw51+W4YINwaWTgwYgAEYgIGUGMBwZ9H845gogAIogAKVUgDDjeGmUZhSo5BIXPpfJjRFUxiAAQx3pZqEnAcFUAAFUCALBTDc6bdliHBjYOnEgAEYgAEYSImBvXv32pYtW62+sdHemT7DDpnZoUOH3JJFw4hjogAKoAAKoEBnFfD/p/Q/S/+79D9M/8v0P41gQucNOIY7pUYWMHYeRjREQxiAge7OgBonm2W4GxpsyvSZnW0D8XkUQAEUQAEUqKgC+t+l/2H6X4bhTqddhuHGcNNzBQMwAAMwkBIDLsK9bZvVNzTauzMw3BVtJXIyFEABFECBTiug/136H7Zl2zYMd0ptAwx3SkJ296gM159ODxY6oiMMHN4MRA33O9NndbrhwwFQAAVQAAVQoJIK6H8XhjvdtgyGG8NNZAsGYAAGYCAlBpzhdinljfbOtBmVbCNxLhRAARRAARTotAL63+UMNynlqbWNMNwpNbKIaqXbE4Se6AkDMNAdGSga7rBoWqdbPhwABVAABVAABSqoAEXT0m9/Ybgx3Kn13nTHxjHXnP4fFTRF08OZAaYFq2CrkFOhAAqgAAqkrgDTgqXfjsNwY7gx3DAAAzAAAykxgOFOve3HAVEABVAABSqoAIYbw02jMKVG4eEcgeLe0/9DgqZoCgMBAxjuCrYKORUKoAAKoEDqCmC402/TEeHGwNKJAQMwAAMwkBIDGO7U234cEAVQAAVQoIIKYLgx3DQKU2oUEo1K/8uEpmgKAzCA4a5gq5BToQAKoAAKpK4Ahjv9tgwRbgwsnRgwAAMwAAMpMYDhTr3txwFRAAVQAAUqqACGG8NNozClRiGRuPS/TGiKpjDw/9k7Dy8rqq3b/xfvve/e7+ZkJOccBBMqIJJzkqCCCio555wzJkBBERRExZwQUJErogIqiCJJcmzSemPuqjpUnc7d1XQ351dj1Kjqc3bt2jXPrK41a629FhxAcF9Dq5BTgQAIgAAIxI4Agjt+WwYPNwKWlxhwAA7AATgQEwcQ3LHbfnQIAiAAAiBwDRFAcCO4MQpjMgrxxMV/M4EpmMIBOIDgvoZWIacCARAAARCIHQEEd/y2DB5uBCwvMeAAHIADcCAmDiC4Y7f96BAEQAAEQOAaIoDgRnBjFMZkFOKJi/9mAlMwhQNw4HoV3OL2y6tft4bNO7lV+/qMBQRAAARA4PpCAMEdvy2DhxsBy0sMOAAH4AAciIkD15vgPnnqtM1/eqlVva2R/atk9ciqz/Sd2rCAAAiAAAhcHwgguBHcGIUxGYV44uK/mcAUTOEAHLheBPf+A4ds7ORZVrrKHRGRnSy69bfaqK2OYQEBEAABECjeCCC447dl8HAjYHmJAQfgAByAAzFxoLgL7h27frInBo6ym8rViQjt8jUb2LTZi+zI0WP2+5Gjbl+fhQW4jtGx6oMFBEAABECgeCKA4EZwYxTGZBTiiYv/ZgJTMIUDcKC4Cu6Nn2+xzj372r9L1YiI6Np3NbXnlr1sZ8+eS2c56jN9pzZh4a0+1Jf6ZAEBEAABECheCCC447dl8HAjYHmJAQfgAByAAzFxoDgJ7kuXL9u69e9Z45ZdIoJZ4rlRi8629o137NKlS9laimqjtjomLLy1f3+rru4cOhcLCIAACIBA0UcAwY3gxiiMySjEExf/zQSmYAoH4EBxENwa49Llq6xug+YRgSzPdMfuj9uGjV/k2SLUseoj2VOuc+mcOndRXoYOH2lDhnnrK6tWF+WhMjYQAAEQKBAEENzx2zJ4uBGwvMSAA3AADsCBmDhQlAX30WPHbcbcp61irXsiQvvGsrWtT/8R9t2OXbEZb+pLfarvsNdb59YYNJaiuPyf//mzBWuPh3oVxSEyJhAAgSKIwOpX19j8BYvc+uNP+c9jocihp595zvW3cPEzOYo2igsWBDeCG6MwJqMQT1z8NxOYgikcgANFUXDv/WWfDRszxUpUrBcRv6Wq3G6jJ8ywffsPxGWnpetHfescOldYeGssGpPGVpSWQGxri+AuSr8MYwGBoovA19u+sf/3x7+6l3X/uuEWO3bsWJaDPXPmjP22f3+WbfTl3fc0SrwAXLT42Wzbx9UAwR2/LYOHGwHLSww4AAfgAByIiQNFSXBv2/699XpiiN1QumZE7Fape5/NXfi8HT9xMi77LNt+dC6dU+cOC2+NTWPUWIvCguAuCr8CYwCB4oVAw8ZNE8J4+szZGQ7+hx9/tEcff8Jq1bnd/ud//+ba31yijLVp18lWvLQyw2M2bf480e9/bippx0+cyLBd3B8iuBHcGIUxGYV44uK/mcAUTOEAHChswX3lyhX78JON1qZLr4iwlci9vWErW7FyjaWlXYjbPstxfzq3xqCxhIW39jVmjV3XUFgLgruwkOe8IFA8EVj/9rsJUVyiVHk7dy59RQcJZwnm8P+X5P3BQ0fY5QySS7Zu2zFx3MhRY68JSAju+G0ZPNwIWF5iwAE4AAfgQEwcKCzBffHiRVu15k1r0KR9OiHbrF0Pe/v9jzM05q6J9ZbBSWRYakwaW7Lw1jXoWnRN13oJG8FxhZTrBYI8U2fPnr3WlxM536lTp68ZB3QuvYBkAYHrHQF5qIP/G6PGjE93uRLbf/rrvxJt/vy3f1vjB5pb1249rXTZSonP1cdjfZ5Md/y7772faCOP+LX4v4jgRnBjFMZkFOKJi/9mAlMwhQNwoDAE9/p3P0w3P/s/pWta99797cut29IZcEXtA41RY9WYw+Jb87x1bddyCQxnbfMquL/8covJW3XH3fc5g/qPf/p7wmC+6dbSLoT0448/jVzWRx9/Yn2e6JdYP9u4KfJ98h9KqNSv/6BE++UrXk5u4uaRyiPWtHlru7VUOTcGGf61697hQlsPHDiY7hh9sO2b7Yl+58ydn2jzyScb3HVJYLRt39m2bPkq8Z1EwJKlL9jtd91r/77hVneu//uHv5iut8G9jW3W7Hn2yy+/JtqzAwLXAwKHDh22P4Tu7527fkh3WS1bt0vc/+UqVrX9B6I5MwYMGpr4XqHme/f+EulD97qEdvC/6Y0334p8XxB/ILjjt2XwcCNgeYkBB+AAHIADMXGgMAR35TrRedESqjt25T9LbkEYcln1qTEnJ3bTtV3LJTBq8yq4w96ucF8Z7Yfnen733fcJg1pt23XokuVlS7CH+wz3pQM//OhjK1m6QqRNuL32ldzptTWvpzvP6+veTBwngXD06FFr0rRl4rOgn1dfW+uOPXLkiNWoXS/d90G7YNu8ZZt05+IDECjOCMydtyDB+3q3353uUjRvWy+edA8oqVpG2csVAaOXYsF9orKEyUtYlHfo1DX569j/RnAjuDEKYzIK8cTFfzOBKZjCAThQGIJ76qyFEc+wvMS17njAnl6yws6cKdww5pxYghqjxqoxhz3c2te1XcslMHq1zYuHO5w8SX3Iuy3hq7mdQaKk4Bz6TkI7WO5q0DBhdP/xz//IMkHS432fSrSVh+3gwUNBN/bW+rcTRn5wLnm41X9yCOvf/nljOo9bWHDr+IqVayTOFfSnbSC4JaTDn2tf56te6za74eZSie8Q3ImfiJ3rBAFFegTcz0goDxoyPPH9Pffdn+lVv7xyVaLdP/99s9M64cbyagfn0Vzwgl4Q3PHbMni4EbC8xIADcAAOwIGYOFAYglvG1w8/7bF+Q8bazeXrRERruep32aQZ8+3w70cK2kbLdf8ak8amMYaFtq5B16JrutZLYNRqmxfBrbDwJ54aYGvWrjOFm4YXzePW9+FzhD3TL7y4IvLd0mUvhg9P7Ct8Oyxk5VUPlgsXLlrlqrUS/Ujsv/f+B8HXbvvKqtX2v3/5Z6LNw70ei3yfLLiD8VapVss6dn7QJCx0jV99tdX27dsXEfcPNGuVLnRcoes6Z2bXEzk5f4BAMUJAUyaC+2P1q6+lG3k4MiQ8PSO54YkTJ93LuaCv3buj//tUQiz4Tlt5zgtyQXAjuDEKYzIK8cTFfzOBKZjCAThQWII7ML4OHf7dJkyda2Wr3RkRsbdUqGsDh0+wn3b/HDQttK3GMGDYeNOYwkJbY9bYdQ2FtYSN2rwI7uzGLUEsb3dwnrDYVVI1ebeC7xo1aZZhdxLQQRtt33xrfaLdgkVPJ75TKOsXX2xJfBfeGTZiVKJd6XKVwl9ZsuCWgF+//p1Im+APzT0Pj0Wh7CwgkAoI7Nnzc4T7ySJZGFStUSfR5u133ssSFt2Hwb204bON6dreUrJs4vuMcjakOyAfHyC447dl8HAjYHmJAQfgAByAAzFxoLAFd2BjnTp92hY9+6JVr984ImqVmKzHowNsy3+/CZpes63OqXMnJ0fTGDVWjbmwl8Dg1bYgBLeuT17g4DwtWrWNXPJT/QYmvtOcz+QES2rcq3efRBuFboezFoc9aq3adoj0Hf5j8+dfJPqQMA+XMkoW3JmJdvUnD3dwLdqGPfbh87EPAtcbAuE8CrqHMirp9Y9/35S4P5RMMaulbr07E20VEZK8KCQ9uNcmTpqa/HWsfyO4EdwYhTEZhXji4r+ZwBRM4QAcKCqCO7C+JMZWvfaG3d2kXUR4y7PcvH1Pe+f9TzI0FIPj87uVEapz6Fxhb7b2NSaNLSwY83u+/B4fGLTaFpTg7ty1e8JwThbc27/9NvGdxpAchqr/MUEWcH2fXJdXSc6Ca5gybUamcCQL5V0/XA1RzY3g1gk0Vzs4p4RH956P2H+/LvrZ8TMFhy9AIAcIKIdBwHslIExeTp8+nfhe7X7avTu5SeTv8MuymbPmRr7TH3qBFpyv/8Ah6b6P8wMEd/y2DB5uBCwvMeAAHIADcCAmDhQ1wR0YYcqE++HHn1mbzo+kE763N2xlK15Za2lp8dVNVl/qU30nC22NQWPRmIraEhi02uZVcOu6Vr+6xs3XlhEtQaqt5m/PmDXHlM04OE+y4BYeKicWfJ+c+Xj92+8mvlObcNZjhasnJ2ZTOaGM1htvuTr3VP3s++23xE+RW8G97MXl6c6rPm+rf5ctWvysnTx5KtE3OyBwvSDwzLPPJ+7FshWqpLusY8eOJb7X/ZBc7iv5gHDywYxelvV8uHeiP73UKsgFwY3gxiiMySjEExf/zQSmYAoH4EBREtwSfhllKd+2/Tvr1Xew3ZBU97pK3YY2d9ESO5EPgaRj1Yf6CgttnUvn1LmTF42xqIhvGcbBmhfBrazj4dDQoK/MthkJ7qUvLE+MQceFEySFje77Gj0QgfLnn/dGjsvsnMmfyystsR4suRXcOu79Dz6MeN7D55BHfur0mQUaSRGMnS0IXCsEwiXBqlavneFpVfc+uBeyi/pQDfugrRIoJi+PPv5E4vuCLg2G4I7flsHDjYDlJQYcgANwAA7ExIGiILhdGPmaN13I9r9L1bBOPfrYR59uSidq9/6yz4aOnpyu9nWpKrfbmIkz7bf9B5Ntvkz/Vlsdo2PDQlt1tXUOnSu8SGBrTBqbxujCy9e8Wejh5YHBq21uBffvv/9uZcpXThjF6uPv/7rR6t/RwO5scJ9LlqZ52eFzZCS4z5w5Y+G5n+MnTnbQnT9/PvJ5cuIkZUEP9y1Peb/+g7Jdhw6P1v3Ni+DWAJWNfMLEKSZvX3gcwb5C6VlA4HpBIFxVQIkQM1oqVK6euBc++PCjjJokPsuubZcHeyT66v1on8RxBbGD4EZwYxTGZBTiiYv/ZgJTMIUDcKAwBffp02ds8XMvWo3b74+IXiUp6967v23/bmeGttnRY8dt+pzFVqFmg8hxN5atbX0HjLTvd/yQ4XH6UN+pjdqGhbb6Up/qO6NFY9GYkhOoaey6Bl1LYSyBONQ2t4JbXtzw8U/2G2Caxxle9D+idduOiXYZCW61V9mtoK9KVWq6Lta98WbiM2UzV1bz5CU8vzuviZXyKriDsehlyiefbLCu3XqmCzV/9733g2ZsQaBYI6B698E9+ue//TvDayzvJVwAACAASURBVFEUStBGUy8yW/SS9K//uCHRdseO9P+rw8kWVWWgIBcEd/y2DB5uBCwvMeAAHIADcCAmDhSG4D5y9JiNnjjTSlSqFxG9Krul8ls5LQV29tw5W7L8FavboHmkn8BL/tmmLxM2nvYD73RYaOtY9aG+crJkViJM16Jr0rVdyyUwjrXNreC+t2GThMGs+tcZZS3WtWSVNC241m3fbE/0pbF8tfW/1rXbQ4nP+j7ZP2ga2cqbHlxDuw5dIt/l9I/8Cu7weVTeKBiPtqPGjA9/zT4IFFsEPv/iywi3M3oB9kjvxxNtsgoDVzm94D75w5/+bqdORV/UCSTlRAjaKBdEQS4IbgQ3RmFMRiGeuPhvJjAFUzgABwpDcDdr1yMikOVtnjRjvh06fCRPNtmly5dt3VvvWeMWXSL9SljXubuZW8MiW/uNW3Zxx+jYvCwaq8ac7CnXtV3LJTBotc2t4A5n61Z4aGZLTgS3jq1/5z0JA1sJ18IeMAnwjBbV9Q6uQXOzv/pqa0bNsvwsTsGtE4VDzB/r82SW5+ZLECguCCgZYHiKSEbl8z799LPE/fiXv//HNF0ko0Uv0IL7NqOpF/KAh+eDF3SkCII7flsGDzcClpcYcAAOwAE4EBMHrgfBHTYIP9u8xTr17OvmWSeLbOf57tnX1Ca/S1EU3AqJPnHiZI5WhVG3adcpYTTLeP56W7TWuQx0lfFS+GlgXGcWUi48lyx9IdEuaK9trTq3Zwr3zp27TB6yoH3lqrVs0+bPM22/e/ce+2zjpsj3uRHchw4ddteZmTdfWdQlNILxTJ4yPXIu/gCB4oxAzTr1E9xesOjpDC+ldt07Em00nSS5DKLut/A9m9H9Go540Ys05WsoyAXBjeDGKIzJKMQTF//NBKZgCgfgQGEI7rhCyrMy4Hbs/NH6DhzlPNBubvfAUabP8rsU5ZDyQCTmZLv/wAGbMnV6wrDWMZpnLY+zSvw82P1h+89NJSPfq01Wglvzv5V0Lfn88xcuzhJ2zR0PHyMDvfEDze2pfgNdtvDhI0absp1rbrjaSTSEl9wI7mkzZrk+/nNjCWvfsaupb9UO1+e6tr/9Mzr+cMb18DnZB4HiiMDjfZ9K3Gu6pzJalNwwfD/e1aChuz9UjaD3Y33tj3/+R+J7ZSrPaHl+ybJEm2o162bUJNbPENzx2zJ4uBGwvMSAA3AADsCBmDhQGII7sLSyS5r25dZtQdM8b48dO2Fa87toLEU9aVrYSM5uX4JbczgrVq6RMIwzOuaPf/q7latYNdEmK8EtjBVKHu7nf//yT1N936wWfR+u6Rs+PqP9OAR3Rv0mf6YXEiwgcD0hEE6cphdq4fJ64eucOWuu6cVX8j0R/lti+/Dh38OHJfZbtm6XOLagE6bppAhuBDdGYUxGIZ64+G8mMAVTOAAHClNwB9ZZuCxYchi45kS/8/7HdvnylaD5NdvqnDp38pxzjbEolgULG8NZ7cuQPnr0qMNxz56frVmLNgnjODjuf/73b6Yswwr5fnnlqsT32Qlu1e4N+tBWidNyury4/CW74eZSkePDfWlMEubKfh5eND803C6jualBe12PvHTy5oePCe9XqVbLVq1+NTiELQhcNwjof+0tJcsmuP/mW+szvbbVr66J5DMI7hFFgXTv+UiGVQfUmUR4OOR8567Mq0ZkevJcfoHgjt+WwcONgOUlBhyAA3AADsTEgaIguAPbSvOKP/z4M2vT+ZF0yc9ub9jKVqxcY2lpF4LmBbbVOXQunTP5BYDG9uEnG9PVCC+wwVyjjhU6LSGredjKZpxRBuOcDCVZcCubcW4WcWDfvn2mGsCaY6pwb4lfZQ/PzJuWm/6DtqoRLmG+9vU3bOHiZ2zW7Hn26mtrbet/v7ZLly4FzdiCwHWHgKZRBOK5U5du2V6f7jt5xlXH+9tvv8v2/pi/YFGif4WjX4sFwY3gxiiMySjEExf/zQSmYAoH4EBREtxhw2zb9u+sV98hdkPpmhHRW6VuQ5u78Hk7cfJUuHks++pTfescYaGtMWgsGhNL1giE52Mr27cENAsIgEDRQeCXX35NZBBX1EicHui0tDQrXa5SQnCvWbvumlw4gjt+WwYPNwKWlxhwAA7AATgQEweKquAOrLS9v+yzoaMnW4mK0Zrdparc7upe/7b/YNA0z1v1MXrCDFOfYaGtc+rcGgNL9ggoA3g4w/fESVOzP4gWIAAC1xwB1ZcPvNztOnSJ7fyz58xP9Htfowdi6ze7jhDcCG6MwpiMQjxx8d9MYAqmcAAOFBXBLU/oho1f2LjJs7362ElhvUePHbfpcxZbxVr3RESxy0A+YKR9vyP38wR1TN8BI9PV0tY5dC6dM7wo1Fj1vjVGjTXVvbeaD6o6vcLlk082WIN7GyeMbQnv33/POKFSGFP2QQAErj0Cqihwa6lyift1+7ff5nsQSsAWVDZQve/kMoP5PkEWHSC447dl8HAjYHmJAQfgAByAAzFxoLAF95kzZ23p8lV2Z6M2ESFdvX5jW7ZitZ1PS4uYWefOnbMlL75idRs0j7R3NbZ79LHPNn0ZaZ/RH2rTqUefdLW61af61jnCi8agsWhMYQ+4xqyx6xpScQnP1Qy8ZcF2yLCRqQgJ1wwCxQYBCWTlMtAa18tDhZSrP22v5YLgRnBjFMZkFOKJi/9mAlMwhQNwoLAE9569v7ow7rLV7oyIWAnntl1729vvfWSXLl/O1GbTd+vWv2eNW3aJHC9B3KhFZ3v9zXcjx6u9PtN3YdGsffWhvrI7n8aksWmM4T50DQpJ1zWl0hLUtA5EdrCVp/taG9yphDvXCgIgEEUAwR2/LYOHGwHLSww4AAfgAByIiQOFIbgVrh0WrNovWbm+DR450Xb+8FPUksrBXxs/32Kde/ZNJ4Rr39XU5j+91OYtXmLaD59TolnH6NjcLhqjxqoxh/vUvq4tVRZlIG/VtoNLkqRSQbXr3mGqXZ3XDOepghvXCQIgEC8CCG4EN0ZhTEYhnrj4byYwBVM4AAcKQ3BXrnNfOqG69evt+bbAduz6yZ4YNMpuKlcnXf+BMNZ3aqO2+V005qDfYKtrYwEBEAABELh2CCC447dl8HAjYHmJAQfgAByAAzFxoDAE9/p3P0wniv9TuqZ1793fvty6Ld9W2v4Dh2zs5FlWusodCUGsfX2m7/K7aIwaq8YcCG1tJeZ1bSwgAAIgAALXDgEEN4IbozAmoxBPXPw3E5iCKRyAA4UhuGWGKcP1qjVvWoMm7SOiVcK1Wbse9s77H9vly/mr4Xzy1Gl7btnLbtV+fhaNRWPS2MIiW/u6Bl2LrokFBEAABEDg2iKA4I7flsHDjYDlJQYcgANwAA7ExIHCEtyBOabsuB9+stHadOmVTsje3rCVrVi5xtLSLgTNr/lW59YYNJZkoa0xa+xxZfi95hfHCUEABEDgOkAAwY3gxiiMySjEExf/zQSmYAoH4EBhC+6wrbdt+/fW64khdkNSqHaVuvfZ3IXP24kTJ8PNC3Rf59I5de6w0NbYNEaNlQUEQAAEQKDwEUBwx2/L4OFGwPISAw7AATgAB2LiQFES3IHZtveXfTZszBQrUbFeROyWqnK7K7+177cDQdPYt+pbJb50rrDQ1lg0Jo2NBQRAAARAoOgggOBGcGMUxmQU4omL/2YCUzCFA3CgKAruwIw7euy4zZj7tFWsdU9E/N5Ytrb16T/CvtuxK2ia7636Up/qOyy0dW6NQWNhAQEQAAEQKHoIILjjt2XwcCNgeYkBB+AAHIADMXGgKAvuwKzTGJcuX2V1GzSPiGHV0u7Y/XHbsPGLoGmutzpWfaivsNDWuXROnZsFBEAABECg6CKA4EZwYxTGZBTiiYv/ZgJTMIUDcKA4CO7AzLt0+bKtW/+eNW7ZJSKOJZQbtehsa994xy5duhQ0z3SrNmqrY8IiW/v3t+rqzqFzsYAACIAACBR9BBDc8dsyeLgRsLzEgANwAA7AgZg4UJwEd9js2/j5Fuvcs286z3Ttu5q6MmBnz54LN3f7+kxlwtQmLLTl3VZf6pMFBEAABECgeCGA4EZwYxTGZBTiiYv/ZgJTMIUDcKC4Cu7AHNyx6yd7YtAou6lcnYiILl+zgU2bvciOHD1mvx856vb1WVho6xgdqz5YQAAEQAAEiicCCO74bRk83AhYXmLAATgAB+BATBwo7oI7MA/3HzhkYyfPstJV7oiI6rDADvbVRm11DAsIgAAIgEDxRgDBjeDGKIzJKMQTF//NBKZgCgfgwPUiuANz8eSp0zb/6aVW9bZG6YS3PtN3asMCAiAAAiBwfSCA4I7flsHDjYDlJQYcgANwAA7ExIHrTXAH5uOFCxft5dWvW8PmndyqfX3GAgIgAAIgcH0hgOBGcGMUxmQU4omL/2YCUzCFA3DgehXc15c5ydWAAAiAAAhkhgCCO35bBg83ApaXGHAADsABOBATBxDcmZlwfA4CIAACIFAcEEBwI7gxCmMyCvHExX8zgSmYwgE4gOAuDuYkYwQBEAABEMgMAQR3/LYMHm4ELC8x4AAcgANwICYOILgzM+H4HARAAARAoDgggOBGcGMUxmQU4omL/2YCUzCFA3AAwV0czEnGCAIgAAIgkBkCCO74bRk83AhYXmLAATgAB+BATBxAcGdmwvE5CIAACIBAcUAAwY3gxiiMySjEExf/zQSmYAoH4ACCuziYk4wRBEAABEAgMwQQ3PHbMni4EbC8xIADcAAOwIGYOIDgzsyE43MQAAEQAIHigACCG8GNURiTUYgnLv6bCUzBFA7AAQR3cTAnGSMIgAAIgEBmCCC447dl8HAjYHmJAQfgAByAAzFxAMGdmQnH5yAAAiAAAsUBAQQ3ghujMCajEE9c/DcTmIIpHIADCO7iYE4yRhAAARAAgcwQQHDHb8vg4UbA8hIDDsABOAAHYuIAgjszE47PQQAEQAAEigMCCG4EN0ZhTEYhnrj4byYwBVM4AAcQ3MXBnGSMIAACIAACmSGA4I7flsHDjYDlJQYcgANwAA7ExAEEd2YmHJ+DAAiAAAgUBwQQ3AhujMKYjEI8cfHfTGAKpnAADpw7d86OHj1mP+zebRs2f14cbCvGCAIgAAIgAAIJBPTs0jNMzzI907Bt8m/b4OFGwHIjwQE4AAfgQEwccIL72HHb/fPPtmnLVlv9xlu2eOlymz5/sU2cNdfGz5hj42fMZgUDOAAH4AAcKAIcmGMTZ82z6QsW26Kly90zS88uPcOOHjuO4I7JNkBwxwQkb3/y//YHDMEQDsCB4s6B8+fP28lTp2zf/v327Y4d9tGGjbbmrXds+ao1tuSlV+z5FStZwQAOwAE4AAeKBgdeWmlLX3rFlq9e455VH23Y5J5deobpWaZnWnF/LheF8SO4EdzcSHAADsABOBATB9LS0uzsuXN2/MQJO3DwsO3es9e+27XLvt7+rW39Zrt9te0bVjAothw4fOSIBStc5l6GA9cBB77WNWx3zyg9q3b/vNc9u/QM07NMz7SiIFiL+xgQ3DEZWcWdCIwfzyIcgANwIB4OyEBRaPmZM2ech+D4yZN27Pjxq+uJE3aMFQyKIQcCsa0tHOY+hgPXAQdCzyY9q+TV1rNLzzDEdjw2gWwrBDeCmzdXcAAOwAE4UEAcSLtwwRktGC7xGS68GCo8LMOCm9+h8H4HsAf7uDmgZ5RbC+hZGPd4i1t/CG6IhaENB+AAHIADcAAOwIFsOYDgRugVN6HDeOFsUeAAgpsHbLYP2KJAVMbAP0w4AAfgAByAA4XLAQR34eIP/8EfDhRPDiC4EdwIbjgAB+AAHIADcAAOZMsBBHfxNPYRafxucKBwOYDg5gGb7QOWm7Rwb1LwB384AAfgABwoChxAcMPDosBDxgAPixsHENwIbgQ3HIADcAAOwAE4AAey5QCCG6FT3IQO44WzRYEDCG4esNk+YIsCURkD/zDhAByAA3AADhQuBxDchYs//Ad/OFA8OYDgRnAjuOEAHIADcAAOwAE4kC0HENzF09hHpPG7wYHC5QCCmwdstg9YbtLCvUnBH/zhAByAA3CgKHAAwQ0PiwIPGQM8LG4cQHAjuBHccAAOwAE4AAfgABzIlgMIboROcRM6jBfOFgUOILh5wGb7gC0KRGUM/MOEA3AADsABOFC4HEBwFy7+8B/84UDx5ACCG8GN4IYDcAAOwAE4AAfgQLYcQHAXT2MfkcbvBgcKlwMIbh6w2T5guUkL9yYFf/CHA3AADsCBosABBDc8LAo8ZAzwsLhxAMGN4EZwwwE4AAfgAByAA3AgWw4guBE6xU3oMF44WxQ4gODmAZvtA7YoEJUx8A8TDsABOAAH4EDhcgDBXbj4w3/whwPFkwMIbgQ3ghsOwAE4AAfgAByAA9lyAMFdPI19RBq/GxwoXA4guHnAZvuA5SYt3JsU/MEfDsABOAAHigIHENzwsCjwkDHAw+LGAQQ3ghvBDQfgAByAA3AADsCBbDmA4EboFDehw3jhbFHgAIKbB2y2D9iiQFTGwD9MOAAH4AAcgAOFywEEd+HiD//BHw4UTw4UG8GdduGCpaWluRWyFU+y8bvxu8EBOAAH4MD1yIHAPpGtcj1eX3BNCO7r+/cNfme2/M5wIF4OFGnBrQfYuXPn7MyZM8YCAiAAAiAAAiAAAkUdAdkssl1kw1xvRiuCO14j/HrjB9cDP+BAxhwosoJbD6qz587Z8RMn7MDBw0X9+cr4QAAEQAAEQAAEQMDZLLJdZMNcb6IbwZ2xMY3IABc4AAey4kCRFdznz5+3k6dO2b79++3bHTt4hIMACIAACIAACIBAkUdANotsF9kwsmWyMsKK23cIbkRFceMs44WzRYEDRVZwKxzr6LHjtvvnn23Tlq1F/gHLAEEABEAABEAABEBANotsF9kwsmWKgrEX1xgQ3IiXuLhEP3AplThQtAX30WP2w+7dtmHz5zzBQQAEQAAEQAAEQKDIIyCbRbbL0aPHENzXeRK5VBIMXCsCGQ7knQNFV3CfP2/Hjh+3H3bvsU83IbiLvIXBAEEABEAABEAABJzNIttFNsw5QsqvKw8/giPvggPswC6VOYDgxjgAARAAARAAARAAgZgQkJMAwY24SGVxwbXDfzgQ5QCCO6YHLN2AAAiAAAiAAAiAAII7amhieIMHHIADqc4BBDe2AQiAAAiAAAiAAAjEhACCG3GR6uKC6+cegANRDiC4Y3rA0g0IgAAIgAAIgAAIILijhiaGN3jAATiQ6hxAcGMbgAAIgAAIgAAIgEBMCCC4ERepLi64fu4BOBDlAII7pgcs3YAACIAACIAACIAAgjtqaGJ4gwccgAOpzgEEN7YBCIAACIAACIAACMSEAIIbcZHq4oLr5x6AA1EOILhjesDSDQiAAAiAAAiAAAgguKOGJoY3eMABOJDqHEBwYxuAAAiAAAiAAAiAQEwIILgRF6kuLrh+7gE4EOUAgjumByzdgAAIgAAIgAAIgACCO2poYniDBxyAA6nOAQQ3tgEIgAAIgAAIgAAIxIQAghtxkeriguvnHoADUQ4guGN6wNINCIAACIAACIAACCC4o4Ymhjd4wAE4kOocQHBjG4AACIAACIAACIBATAgguBEXqS4uuH7uATgQ5QCCO6YHLN2AAAiAAAiAAAiAAII7amhieIMHHIADqc4BBDe2AQiAAAiAAAiAAAjEhACCG3GR6uKC6+cegANRDiC4Y3rA0g0IgAAIgAAIgAAIILijhiaGN3jAATiQ6hxIecHdbGxFazGukjUfW8ltW4yvZC3HV/bWCZWt1fjK1npiFWs10dtqv82kKtZmclVrM7mKtZ1czdpOqWrtJlezdlOrWfup1b11WjVrP626dZhW3TrOqG4dple3TtNrWKeZNazjjJpu22VmTes8q6Z1nV3Lusyq5W3n1LIH59T21rm1rduc2tZ9Xh3r5ta6bttjfh3rMb+u9VhQx3ouuM16LqxrDy24zR5adJs9vKiev95mDy+uZ48srm+9nta2nvV+ur71fqa+9Xrmduv9bH179JnbsYxAAARAAARAAARiRADBjbhIdXHB9XMPwIEoBxDcYypYszEVrfnYitZ8nNZK1nJcZUsIb4nuiZWs1YTK1nqS1irWelJVT3RPkuCu6tZ2U6pa26me6G43taq1n1rNOkz1BHeH6dWsw3QJ7RrWUcJ7Rg3rPKOmdZbgnlnDbbvMqmldfOH94OzaTnwHwrubhPdcCe/a1n1+Hesuse1EtwR3XSe6H1pY13ou9ER3ILwfWVTfCW2J7UeeltD2xLdEt8Q2gjtGC4uuQAAEQAAEQMDMENxRQxPDGzzgABxIdQ6kvOBuOqaiycvdfGwFX3TL013RWjpPt7zdnthuNaGKJ7olvCdWTghuebrbSnhLcE+uahLe7abI013V2svLLbE9rYZ19D3dHQPhPcPzdneaWdM6SWzPqmGB6O46u6Y96DzdnrdbXu5uc+t4otsJb3m4fS+3L77l5e6xoK49JNG9UJ7uuvbwYnm5b/O83IvqOU93r4Twru+83FhHIAACIAACIAAC8SGA4EZcpLq44Pq5B+BAlAMI7tEVrenYwMtdyRPf4zzR3UKebu1P8MLMFVbeamIVJ7gVWu55uwMvd7WI4G47tbovvH0vt8LLp1c3J7h90d1Zolvh5bPk5fbCyhVi3nm2wssVau55urvO9YV3IrTcCzFXqLk83j3ne17unvMltj3R3XNhPU94L/TCyT0vt0S3vNzeKk83CwiAAAiAAAiAQHwIILijhiaGN3jAATiQ6hxAcI+uYE21utDyCr63u1IovLySH15eyc3nbjmxkpvT7QnuytZa87j9MHMXXj6lmuflnup5ur153ZrPLU93EGJe3To4sS3B7YtuhZkrvFzebonv2V6IuQsv9+d1y9P94Nxa1n1uHW+d74WY9/TDzF14uTzcms/tC28vvFweb3m6ffGtOd3P1HdzuuMzMegJBEAABEAABEAAwY24SHVxwfVzD8CBKAdSXnA/MLp8RHC7udya06353EmJ1Ny8bs3pVli52/rebie4lUjNS6YWDi2/Krir+0nUqrl53JrLHYSXO9Htz+dWIjW3ujBzL5Gakqp5wttLpubmc/th5oGXW55uhZQrmZo83hHBvbCeS6D2kBPct3mh5Ys9bzemEQiAAAiAAAiAQHwIILijhiaGN3jAATiQ6hxAcI+qYA+EvNzenG7P093MJVHzxXcie3klk5dbotvLXO5lL1fmcnm63dZPpNY24e3WnG5/lZfbT6aWkejWnG4XVu6HlrtEakqmNkfiW4K7lj3okqgprLy25+meV8d6zIsmUpP4Vgbzq3O669nDbm53PXtk0VVPd3wmBj2BAAiAAAiAAAgguBEXqS4uuH7uATgQ5UDKC+4mo+Th9r3c4dByebld9vJK1sJ5uitai6BcWJBITcJb5cKc+A5lL3flwpRETfO6q4QSqSlz+dXwcgluN687El6uDOZ+5nLn7a5lXV3JsJrWNSgXNqeWS6Dmspc70V3blQtLZC93Ytuf1+0SqXnzul1YucqGuURqXhI1TCMQAAEQAAEQAIH4EEBwRw1NDG/wgANwINU5gOAeVd6ajCxvDwSe7jHBfG4vc7kymCdqdY/zanZLeCfKhrka3RLbVz3dbVSr2w8vb+Pqc1f1anX7ZcMS87nl6ZboVgZzP5FaMKdbJcOUuTzwdrta3S6ZWi0nvD3xXcceVCI1zemW8PaTqPWQx3uBH2Lue7ldrW4/g7nmdTsv96J68VkYWfR0+fJl+2zjJhswaKg1atLMqtaoYyVKlbeadepb0+at7ZHej9uixc/azz/vzbSXLVu+shUvrczT+u2332XaL1+AAAiAAAiAQJwIILgRF6kuLrh+7gE4EOUAgntkOZOX2xPc5b3wcoluZS/3S4Z5oeWVXNkwl7Vc4eWq162tP6e75QTN5/ZWhZV7olv1uqtaO4WYq1SYKxfm1ep2IeYukZpqdFe3jtNqWIcZ1V2t7k4z/URqofDyLrOUxVyZy7153Q9qXneQTG2ukqlJdHvi25UMU4i5P6f7IT+8XCHlLsR8kVev++FrILj/+/U2q1vvTvs///PnHK1Vq9e2rf/9Op3t81S/gTk6PqPzTJo8LV1/fAACIAACIAACBYEAgjtqaGJ4gwccgAOpzgEE98jydr9Et7zcoyW8fdE9urw1G+2VC2vmQsu9JGrNXckwZTH3SoV5dbqvzun25nVrLndlaz2pqvN0d5haw3rPb2T9nm1pw5Z1sXEvP2LTXn3KJq1+3Eat6G4DlrS1PosfsIfm32mdZ9R0orvjjOqJ0HLP26253cpe7glubR9UiLk/rzsIL3fzuuXhdhnMvXndPX1vt/NyL7jNm8vtEqndVhC2RqLPd9593/7wp7/nWii/8eZbiT6CHQR3gARbEAABEACBoowAghtxkeriguvnHoADUQ6kvOC+PxDcLrS8XEhwXy0XprJhCitvrnrdLqzcDy2X+Na8bnm5x1dyCdMeXdDEJq16wlZ8Mtc++/5t++Xwj3bx0oUc2wZXrly2g8d/tS0/fmQrN8y3iasftYfm3emXC6thnf1yYYGn24WWy8M9RyHltdxc7m5+aHn3RCI1z9sdlA2T8Hbe7kUFJ7j37PnZ/vbPG9OJ7b//60ZrcG9j69y1u7Vq28Hq39HAbi5RJtIubsE9Zer0HONPQxAAARAAARDIDwII7qihieENHnAADqQ6B1JecDceUc6ajChnTniP8sLLm4xU5nLP2+3V6PbCy5uPqeTN55b49udzd51e32asGWSfbH/TTp49lnhGX7ErdvrcCdt/dK/t3Pdf+/KHj+yDba/Zms3P27IPZ9jC9aPt+fen2KrPFts7W1+2jTvesW/2brY9h3bY7ycPWNrFc4m+Ll+5bD8e+NZe2/S0jXqpm/NqB+HlCi33spd7otvLYO5lL9dc7u7za5sL1VsmOAAAIABJREFUMVe5MD+0vGcotDxxkph3MvJIK7T75MlTGZ5p9+49tvSF5dardx/7affuDNtk92FaWpo1fqB5RLxrvviRI0eyO5TvQQAEQAAEQCAWBBDciItUFxdcP/cAHIhyAME9oqwLKffCyv353P68bie2/czlgfAOkqh1nlrPXtv0vF3wvdcS2HsP/2Cvf77Mxq98zDpOu81aK4O5q9HthZZrPreSqbk53ZOrWjuVDfOzliuRmuZ1e/O5vSRqA5e0seffn2Sbd75rx89cFY2/n9xvL348w3ouuMPN6Y6IbpUMm1fHzel24eXzJbrl4b66VbkwiW/N5y6o5aZbS0eE78hRYwvqVK5fJWbr1KVb5JzlKla1/QcOFOh56RwEQAAEQAAEwggguKOGJoY3eMABOJDqHEh5wX3/iHLWeHg5c9uR5Z23u4nv6Xbzuf2Eakqi1myM5nRXsKmr+ye82fuO7LEVH8+33vPu95OoVXLh5a5OtxKpTQiyl1f2anSrXvfkqtZmisqGVXUiW8JbYrvdtOq+6PaEtxPfyl4+XaXCatnYlT3t4+1r7VzaGfdsP3TiNxv8Qju/RvdVT3e3RNmwOtZ9rpe9vMc8z9Pdc34dJ7Z7LPQ83mEjIa7906dPR4SvEpnt2LEzru4z7KfPE/0i51QW9KyynmfYCR+CAAiAAAiAQD4RQHAjLlJdXHD93ANwIMqBlBfcjYaXNYWVB6Jbnu4giZqXvdzLYK5a3c1GV7QVH81zj+LDJ/Y74e1Khrk63ZrP7WcuD7KXT6xsTngnspd7Wcvl5ZbY9rKX+55uX3Q7T/c0r1SYJ7iDkmHVrZNLqFbTHl5wt7339St2+fIlJ/wHLmntZS93Wcv97OXO013bq9et0HKXSE1J1DxvtxdeXjefZkXGhx84cDAifiW4f/11X8aNY/h0zLgJkfPdcHMp27lzVww90wUIgAAIgAAI5A4BBHfU0MTwBg84AAdSnQMpL7gltCW67x/hCW95uhOC2w8tb+JqdJe3/s90cE/dH/d/ax2m1HVlwpRIrflYlQyrZK5kWCKRmufpdgnVXK3uytZqYlWvXrfKhqlUmCsZVs0T31MlvKu7MHNXMkw1ulU2THW6nZdbgruGdZxR0zrN1FrD5rwxyInub3/5wlQ2LFGrW9nL5eWWAJfwnlvHFF7ebV5dN6fbiW/N555fMIL7ypUr9pe//ycigmfPmZ87iyWHrecvXBw5zz//fbOpFBkLCIAACIAACBQGAghuxEWqiwuun3sADkQ5kPKCu9GwMtZweFlrNLycNXaiu6w1lpd7hF8ubER5V6db3u7Fb01wz+6560a5Ot0qF+bCzF0SNQnvitZivFbV6a5sLV0Gc79kmAst98LLvXndvuieXMULL9d8brdW9eZ1T61u8nZ3kPB2oru6dVK97uk1nOCW8FYJsd+O7nFZ0JVEzRPdQa3uIIlaLc/L7ep0e+HlEtzd59dxdboLyhipf+c9ESH8p7/+yxY//axJjMe1rHxltf3fP/wlcR6J/I2bNsfVPf2AAAiAAAiAQK4RQHBHDU0Mb/CAA3Ag1TmQ8oK74bAyJtHdaFggur353N6cbq8+t6vRPaq8TV7V3z14j5w8ZIOe6+jEdlMnulUyzK/TLdHtvNxeybAWE7x63a20VYi5Cy/35nO3kadbc7onefO52072RLfn4fYSqnXww8sltOXp7jTDE91dZ9W0dV8uNSVrO37mdye2JbiD7OWubNic2tbVhZnXcaL7QXm5nfBWnW5vzbUlkcMD1r7+RkIIK6Q8WGvUrmdLlr5g585dzcKewy4jzVTj+4+hGt9//PM/7P0PPoy04Q8QAAEQAAEQuNYIILgRF6kuLrh+7gE4EOVAygvu+3yxnRDe8nYP85Oo+V5uF2I+orw99XT7xHP70uVLtuG7t12YufN0q0b3GJULq5QoGdZyvBdm3sr3dCu83GUuV4i5xLZCzP353MG87rYumVo1a+8ymHte7que7hrWa8G9LnP5b0d/Toxl129fuzrdnWfWss4h0a2wcgnvbgoxn6vwcs3l9kqGKZN5j3kFE1IeDCw5a3ggurX9x79vskcffyJPHumvvtqaLmRdfT7W50lT6Ppb69+2s2fPBsNgCwIgAAIgAALXDAEEd9TQxPAGDzgAB1KdAwjuoWWsodbhZdxcbs3ndnO6lUzNz17uzesubx0n13MP7O9/+a9pDZbDx/fbR9+sswVvjLU+C1tYC83pHifxXdlaBnO6g0RqE7wQ89a+p1vh5W0m+uHlEtv+2n6Kl0xN3u7RL/W0NZufs90Hv7crVy670ypT+Ufb17r9T79/0zrPrGGdZyqsPLTOru0nU/PmdD84x0uipnndLqx8Xu3gEgpkq1JdQ4aNTHi3w4I7vK9a2ctXvGwXL17M0TgmT5mebZ+ly1ay1a+uyVF/NAIBEAABEACBuBBAcCMuUl1ccP3cA3AgygEEdyC4h5Y15+Uerq0nur053fJ2e7W6m4wsZ2fTztjXuzebEqk9saiNvfLp06bSYOHlzPlTtuPX/9qm79+zd7austWfPWPPvzfNZq8dZhNWPmaDlnSyxxY2sX5Pt7YxL/Wy2a8PtSXvT7PXNj1rH36z1r768VP7cf92O3ziN0u7eDX0+vyFc/b5rvdt7hvDrMfcO23aa0+5067etMhlMHeCW8J7ljzdNa2rvN2za7myYRLbqtfdbW5te1BzuOXtnluwgjvA5Ott31j7jl0j863DgjvYL1uhin355ZbgsEy3ORHcQZ+9evfJtB++AAEQAAEQAIG4EUBwRw1NDG/wgANwINU5kPKC+94hpe2+IaU9L7cT395cbjevW4nUhoWyl48oZ3sO7rKDx/a5RGpene4K9sCoCvbwnEY2a+1we+Pz5bZt92Y7dvr3fD/Dj50+bF/s+tBe/GiWjVzezTrPqG0dptZIZC9f9uE0d475b41wWcuDDOZXPd2a0x2a160QcxdeXtuFmStz+bVcdu76wYaNGGW3lCybqYdaydVeX/dmlsNSyLjqbquvSZOn2djxE03Cus5td2TYL57uLOHkSxAAARAAgRgRQHAjLlJdXHD93ANwIMoBBLcT3GXsvqFaSzsvt+fp9hKpNXah5RLdnpd70/fv2+Url63pmMomwe1qdY8ubw+MrmBNx1QwV697TAVrPqaCtZtUy3rNf8CGLe1m014daAvfGmvPvTvFXvxojq3asNiWfzzXnn57ovNwT1j5uA1d1tWefLqlPTzvHus8vbZ5SdQUWu6t7adVdxnMlblc+29vfcmZCKNe6uZlL5/hJVVTybAufni5vN2Bp1sJ1DSn25UKc8K7TowmRs67Uui4RHOTpi0zFMj/uamknThxMucdhlp+9PEnpnDywMOt7X9uLGFpaWmhVuyCAAiAAAiAQMEggOCOGpoY3uABB+BAqnMAwT24jN07uJQntof487mD8HKFlmtVuTC/bNiajUvdE/qhWY1M2cvvH1XOebidtzsQ3WO8BGquZJjmcgdzuscqY3klCzKXt3TzuauYMpi3muSVDPMyl6ted5C53JvX7ZUMq2bhGt1bf/rUjUWJ1DqqZJgE90yvbJi83G6d7ZULc6Hls2q5sHIvc7mXSK1gzI2c96oQ8spVa0UEskTytBmzct5JUssvvthifwhlMFd/1OZOAok/QQAEQAAECgQBBDfiItXFBdfPPQAHohxAcA8ubfdqHaK1jN0beLoluoeX8eZzK6xcgnt4OVvw5jj3gB6+7GFrohrdI30v96jyzuPddHRFazq6gj3gRHcFa6ZyYfJ4K3laaJXw1tpqQmVTFvNWKhk2wcterkzmbSZVNWUubzPZE94S3IHHu/00r1b3viO77Wza6USdbonuTjNqWqfpNayjn0QtmNft1ej2PNxeyTAvvLxArI1cdipvdrJXumu3h3LZS7R5ch3wF5d70QDRVvwFAiAAAiAAAvEigOCOGpoY3uABB+BAqnMg5QX3PYNLm1ZPcCfP5/ZqdCuJmkLLlb181LJe7sk8f90Yc+XCRqpWdzkvtHxkBXvAhZeXd6JbZcKCOt0S3s3GVXCie9gL3V1W8+ffm25tJlUzlQvTKtGt7OXycrvs5X6Nbie6E9nLVau7uimsPO3iedtzcIfb7yAP97Qa1lF1ul1ouZe1vFPg6Z5V0zrL2+0nUVOYedfZ13YOd1YmzYxZcyJebgnm/CwPdn840t/osRPy0x3HggAIgAAIgECOEEBwIy5SXVxw/dwDcCDKAQT3oFJ2z+BSdu8gie1STnhrLrcSqWledyN/XrdCyzW3++HZTdwDd/Vnz5vKhTUeJcGdkac7mM8t0e3X6B5b0TpOqWvKYh4sC94a63m6x1e21qGSYU58O8EtL3cVaztZHm+vVFjbKdWs94JGrovNO9+zDtOqe6tEt7928udzy8OtMHPn6VbJMDe328terjrdRWWZv3BxRCDXv6NBvoZ2z333R/pTcjUWEAABEAABEChoBBDcUUMTwxs84AAcSHUOpLzgbuAL7gaDSts9LqxcortMQnBLfDdSeLnE97Cy1nR0JVcLe+N37znB7UqGjSjvvN3yeAeJ1JpoPrdCy0dXsGZafW/34wubuWf9qXMnElslTms7uabn5Zane0IVU1i5V6u7irVVeLnEdyK8vKqNXtHTHb9283PWXknUpmp+tye45e3u4Hu55e3uPMObzy1vt+p0q2SY83TPLjqCu3PX7hGB3L3nI3m2iQ4cOGh//ccNkf7eeff9PPfHgSAAAiAAAiCQUwQQ3IiLVBcXXD/3AByIcgDBPaik3ePWUi552tUQcy9rufN2D/OSqbkEasPK2uETB2z3gR2Jed2NR1z1cnth5t58bi+RWnkve/mY8tZsbAVrMbayPfP2ZDt/4awrHRZ4u1VG7MWPZluX6fX98HJfdIfCy11o+STN5a5qC94a5Z79i9aP9TKX+17u9tOqOW93x2m+tzuRSK2GdZrlZy+f6ZcKm1Vwgjs3WcZXvLQyIo6V5Oy1Na9HbJvDh3+3K1euRD7L6I8LFy5aoybNIv398983m258FhAAARAAARAoaAQQ3FFDE8MbPOAAHEh1DqS84L57QClrMLCUNRhU0uTlvndISX9OtwS4F1Z+n8tern0vrPybPV/a2bQz1mhEGT97eTmT6JbYvt8PL3die1QFazLqqqfbhZbL8z22krWbUstajK1kHSbXsaUfzEzU7T534ay9/dVKVx7MJVST4Na8bnm8XSI1L7R89cannc3wxpcvWvtpNayd83J75cIUYu6FltewDtNVKkxzu71tZ21n1fK83LNqFpjdUbZCFVdvW3Oplyx9wbZ9s90OHjxkly5dcuc8efKUff7Fl9blwR72//7414hAVhmv06dPR8Z24y2l7YabS1nXbj1t6bIX7Zvt39qRI0dcG/X5yy+/2rIXl1v5StUifUm8Dxg0NNIXf4AACIAACIBAQSGA4EZcpLq44Pq5B+BAlAMpL7jvGljCF9ue6L5HIeZ+mLnmdktsB/O5XVj50DL2zpbV7jndfmI9l0zN1eqW4Nac7pGq1+1lLm8yWtty1lSie4wfXh5kL9dWidTk9R5X0dpOqmHz3hhlvxz+0fV9xa7Y9798ZXPXjbAOU2u5JGpKpNbWXzd8tz5hK/x8aKcNWdrJ2k+pZu2mVnU1ul1YuULLp1V3WcsD0d3ZzefWnO4aTnQnOol555aSZdMJX4lfieu//P0/GX6n71XO65NPNqQbjbzU+j55/eOf/5GuBFi4zX2NHjB5vVlAAARAAARA4FoggOCOGpoY3uABB+BAqnMAwT1Anu1SdvfAkr6n20uidk8wp9t5ub0s5kqipnXJuzPdM/uJRe1c5nJlL/fqdHui+/7EnG6/ZJgT3uUTwtuVDhtbwZqPkeCu6DKXq1a3yoa1HF/ZRr7Y0zZ+/65duuwJRYWdv//1qzbyxR7WZqI3n3vXb9/YxUsX7NWNz9iFi2luf/qa/v58bnm6q3nCW97uGdVd6TCVC1MCtY4qHTbTCy8vKOMjM8EdFsPJ+xLVL738SoZDykxwJ/cR/rt124529OjRDPvjQxAAARAAARAoCAQOHzliqbCmugHN9SMi4QAcyCkHENwDSthd/Uva3QNKOtEt4X3PwNLO6311PncQXu6FmE94qZ97Rk9eOSAkuMtaI3m43VrWebuvZi9X2TDPw9109NWSYUqk1iyUwbz5uIquXnfLcZWtxfhK1mNWA1v2wUzbd2RPwiY4fGK/rd28xE6fO2H7j+5187kHL+lgJ84csQuX0uyxRfd7Xu6p1bxyYZrbPb2aCy1XWLlXq/tqIrVExzHvfPzxp/ZYnyddGHhYBGe0/6e//suGDh9px44dy3QUGzdttv4Dh6Sr151Rf/c2bGKbP/8i0774AgRAAARAAAQKCoFUENu6xpwamrRDlMABOJDqHEBwDyhpdzmxXcIX3KHQ8sF+yTDV6R5cxpvTPaS0PT6vlXtOL3tvtqlGd6NhZazRcK9m9/3ydrvwcoWWS2groVoFe2Bkea9GtxPe2tdcbi97ubzczeXx1nZcJWsxvqIrFdZyvDzelUxzuQcv6Wzrt7xkJ89eFaXybH/z8xf2+udLbetuLwx78dvjrN0UZSxXaHk1ay+xrfrcvqe743RvPreb0z2zRkHZG4l+L1686MTvqtWv2rz5C234iNFOiI+bMMmWr3jZNm3+3I4dP55on92OEqd99933tn79O/bsc0ts7PiJNnHSVHt55Sr74ost9vvvv2fXBd+DAAiAAAiAQIEhgOBGXKS6uOD6uQfgQJQDCO7+Je1OebklugeUsrsGytPtJ1GTp1v7Tnh7YeX3DiltrcZ6ycbe3brGq9XtRHc5VzassZ9IrZHCyocrxNyv0e3P637AJVHzxHcz5+2umBDeCit34tsX3S3k6db+BC/UXLW5206uYSs/XegMBYWaX7lyOWE0HDl10B5d0MgJ7rZTq/vC26/R7TzdSqYmL7cnupVAjQUEQAAEQAAEQCA+BK7nOdwY0VEjGjzAAw7AgZxwIOUF9539FFJewu7sL9EdCG/N5/bmdiuBmhPcg0rZvW5et5dI7dTZ47b95y12n7zbQ1U2TJ7ustZoeDkvkdoIz9PdeIQXXu6VC/PLh40qb0GdbtXqVkI1l8HcT6TmzecOwsvl8fY93eMrW8uJlWzcy486y+CZdyda+2k1rff8hvbIfAnt6tZWidOmVHVh5fJ0t3P1uTWf2ysXpiRq4Trd8ZkY9AQCIAACIAACIIDgxgDPiQFOG3gCB1KHAykvuO/od6vd2f9Wz8vdv4Q3l9ufzx0W3UqiJuGtUmHycu/8dZsdOXnIVKdb2cslvBv6q4S3y1wu8e1nL1fmci97eTk/tNwLK3/Aebm9Wt2az+3CysdIbCvM3Euk5glub153ywmV7em3JziLZsyKXtbalQur4rKYt5lcxVyt7slVPdEdEdxBybBqfskwz9uNaQQCIAACIAACIBAfAgju1DGiEUz81nAADuSEAwjufiXsDnm4+5XwRbfmdJdwoeVeeHlJu3uQt7rM5SoZNqSUffj1G6bSXQ+MrORKhwUlw9x2eMjb7Tzdvpdb3m6/TneTUeE53V6tbs/L7ZUKcyXDXBK1itZ8vFYvrFxzutd+vsRZBo8ubOIJbtXp9suFue3kqi6Z2lVvt+Z0+6s83FO9MHMlUGMBARAAARAAARCIDwEENwZ4Tgxw2sATOJA6HEh5wX37U7fanfJyS3DL063Qcrf6mcsHlPLLhV0NMVeY+fIPFrinc8+Z97s63fcOUVh52Mtdxhr7CdUCb7fqdDcZWc5LpqYkagotH6Ws5V7m8iC8PJG5XJ5uebmdp7uitVBI+fjKtnnH+3bp8iVrO7maaV536wmVrdVEebm9kmHydLd1oruatZ1cJeHtlujuIOHth5cjuOMzsOgJBEAABEAABIQAgjt1jGgEE781HIADOeEAgvupW02iW6HlztOdmM8twe3N6VZCNSVPc7W6B0l4l7Zpq4Y4y2LEst4msa3Q8vsC0Z0Q3v6c7hHaBnO6JbjL2tWSYV5SNSVTc5nLE/O5vczlztMd1Ooe59Xs3nNwlx089qsT3y0nVvHFdmVr7Xu622jrh5e3max53FWtrZvX7c/pDuZzT8XDjXkIAiAAAiAAAnEigODGAM+JAU4beAIHUocDCO6nbnFi+86nSnii23m65e0u6VaFlQeZyz3BXcruGVTSnlrU0T2f56+bYPe6LOZlnOC+b0hpby73UJUJK+vKhsnDrWRqXtZyf153wtMdzOmW4PbLhTnRXdGaqk732IrWzK/Prfndylp+Lu2Mbduz2SsdJu/2hMrWckIVJ7ijolse76rWTt5ulQpz5cKiidTiNDLoCwRAAARAAARSHQEEd+oY0Qgmfms4AAdywgEE95O3Wv2nbrnq5ZanW6K7362J0PK7+gfh5UHJsFLWbkJ9Z1Os+ewFJ7iDZGpKqOZ5ukvbfU5we/W5nYd7eBmXTE2h5W5VnW6XTM2v1S3B7eZ2e+K72Wi/TrcLLffCy7vOuNOd952tqzwPt6vT7dXqVni5CzF3nu7KXoi5Cy/3QszbTanixLcT3lOURK1aqttFXD8IgAAIgAAIxIoAghsDPCcGOG3gCRxIHQ6kvOCuL8H9pC+45e12c7r9MmF+IjWvZJgfYq5yYQNL2j2Dy1jaxTTbvOMju0eZywepXFgpL7xcolsh5kPL+vO6PU93UDaskZKnDQ/KhSl7eTk3l/uBkeUSgtvN51bJsLF+ybCxXoj5wOc7OcNg2QczvRrdmtctL/f4StZ6YiUXXu7N5w7N6dbc7lAiNYWXt/dDzGO1MugMBEAABEAABFIcAQR36hjRCCZ+azgAB3LCgZQX3PWeuMVuf/IWc8Lb93Tfnggv95KpycOtRGp3+57uBn7ZsL2HfjKtSqLmMphLePurCy1XuTC/bFhDlQpTzW4lUhvhhZWrZJjWJvJ4y9M9yhPeTUb64eUuoZoEtxde3nxMJZvx2mBnykxZ3c8JbmUtD8qGKaGawsu1tp7gZS5vPamyy2Auwd0uSKbmanV7oeUpbhdx+SAAAiAAAiAQKwIIbgzwnBjgtIEncCB1OIDgfvJm5+F2Xu6wpzvIXJ7wcqtW99WSYXcPKGmbv//IebnvHVzGJVK7J1Sn+x4XWi4vt0S3PNzKYO5tvezlqtUtwa1SYUHm8quebi97+dVyYSoZJuG9/KN5zjDo93RbV6u7xbiKbi53i3G+p9vPWO7N6VZYue/pVhI15+n2wsqVxbzdFELKY7Wy6AwEQAAEQCDlEUBwp44RjWDit4YDcCAnHEh5wV3/iVusXt9brP4TN1u9J2913u7bw3O6XQZzL4maVy7My1yuBGqvffaCMyzaT6hvDQaV9DzdTnQrtLz01fByl728tAsvb6RkasPLWkOXSM0LK5fw1pzuxqrRLY+37+l287k1p3uUhHdFU7mwD75e687ZccptrmRYcyVUk5d7nOp0V7KWEyq58HLP013FlQzzEql5nu62qtc9uaq1meLV6k55ywgAQAAEQAAEQCBGBBDcGOA5McBpA0/gQOpwIOUF9219bzKFldd74maT+Jan2/N23+rmc7tyYaEkaprPrVUlw+atHe8e0U8t6OgEdwMXWq7w8lLevG4nukvbvc7LrTrdmtPtebkVWu483UG5MF90X/V2+wnUEoK7vCmJ2nd7v7KTZ49b8zEVvAzmylzu6nQHoeWB8PYSqDnhrRrdLpGal7U8qNOt7OUsIAACIAACIAAC8SGA4E4dIxrBxG8NB+BATjiQ8oK7Xt+bTaLbebgluH3Rfbu83fJ091NCNa9k2J39b/VKhUl0Dyhhw55/xD2hV336vN09sJSr1a163Q0GlzYvvDwQ3mWuerxDc7qd6B5eznm87x/h1ekOZy9vomRqo8tbE1eju7y1nVjTTp87aT/u/9YUYq4yYc3HalvJmo/zvNzydLdwidQ8T7dLqOZqdUuAVzXN6VaYuUuiNgnBHZ+JRU8gAAIgAAIgYIbgxgDPiQFOG3gCB1KHAykvuCW26/a92SS85eV2q5vX7Wcv9+d13+6yl8vr7dfo7lfSGg+tZPuP/GKXL1+2lR8/Y81GVfdDyxVeXtpblblcidSCOd0uvFzzur053Y00t9uv06353G7VnO4RfvbyEarNXdEmr+pv+37f7WyZxesn+iHmXpi5anU3H+cJ8BbjK5rWlprTHQjvIJHaxMperW43r9sT3RhHIAACIAACIAAC8SGA4E4dIxrBxG8NB+BATjiQ8oK7bp+b7DatztOt0HI/rDzwdD+led1eePntLpGa6nSrRvetdteAEtZxUgPbfWCne1JfuJhm2/dssZc+WmzDljxiLcfUsgaDfS+3tqF53S6JmhPdfp1uZS93SdS8+dw9ZzWy2WtH2ofb1tnvJw66/i9dvmRL3pvui+3ybk63Eqk1C9XpVhI1z8vtebpbTFCIuTKXV7KWrk63wsv9zOWTqsRnYdATCIAACIAACIAAHu4LGOA5McBpA0/gQOpwAMHtBPfNliy8XTI1v0Z3fYWWK8S8nye879S2Xwm7w5/P3XBwBZv56gj77cjeiKlx5coVO3R8v32z50v77Nv37O0tr9qrG563pe/NtnnrxtniNyfZ8g8X2Oubl9uHX6+zL3Z+bDt+3Wanzp6I9HP2/Gn74L+v22PzW7h63U01r3t0BXvAZS6v4AR3s7HeVqHlSqQWJFHTtpXv6W7p5nJ7Xu5WCiufSEh5BGj+AAEQAAEQAIF8IoCHO3WMaAQTvzUcgAM54UDKC+46j99kdbX29b3cCivve7PV95OpuSRq8nY7T/ctLpGaJ7xLmIS3Eqi57OUDlEitpHWadLeNWNLblrw72z7Z/o7t+/1nu3Llco4f3xcvXbDdB3bY+1vX2Px1Y63vwjbWdFTB/46eAAAgAElEQVQlV6dbc7qVuVzzur3M5eWt6WgJbSVQ8wW3m9etEHNlL69sLSW+tXUZzD1Pt6vT7YvvHA+MhiAAAiAAAiAAAtkigODGAM+JAU4beAIHUocDCG6J7T6+6Hah5d6c7tsS87kVYu7V6lYSNeftlvh2c7qVTM3LWn5n/5JOeCt7+V0DS7q1wcCSbk5342EVrNu0Rvb4vDY28OmuNmJZb5vw0pM2Yukj1m9xJ+s9p5l1mdLAWo6tYY1HlHf1ulU6zJvTrRBzr1a3BPf9fskwL5FahZCn25vPrSRqzcZVchnMWyiDuUqGSWw78V3JJLYVWq6w8tYTKmdrONAABEAABEAABEAg5wgguFPHiEYw8VvDATiQEw6kvOCu/fiNVufxGz0vt/N2K2u5l7nclQtzydQyyl6usPJbPMEt0T3gVrtDonuAhHdJU53uYJXw9kqFlTJXOkxJ1PxEakEytYaaz+1Wby63kqm5Od0qHzbCm9etDOZNRpQ3l73clQvzPN3O2z1GIeYVvVJhiTndnqc7mNctL7cT30qipnndExHcOTehaAkCIAACIAAC2SOA4MYAz4kBTht4AgdShwMI7sckuG9yortOnxs9b7fv6ZbwDmcvD9foVoj5Hb6nO1GrW+HlSqim8HJXq1uebpULK2l3u9rcYcEdJFErbfcN8bKW36eSYcpa7sS2kqmVtcbydPvebtXobqxSYcpg7gvuJm4+tzenW6XCmo72kqmpTrfKhsnbLcHtyoZJcI+rZK5UmJvXTdK07E0nWoAACIAACIBAzhFAcKeOEY1g4reGA3AgJxxAcD96o9V+7IaIl/u2x5OSqAXh5U94oeUS3q5Gt0uk5nm5E6J7gBdi7nm6vfBy1eiWt1s1uuXpdpnLfQF+7+Aydu/gUubEtl8yrOHQsp7oVuZyrSoX5jKYe6HlztMt4T1SNbo1r7uCm9utRGpOdLs53X7JMIltV6fb2zovt5+5vOWESjm3IGgJAiAAAiAAAiCQLQIIbgzwnBjgtIEncCB1OIDgfuwGq+1Et4T3TVbb93a7ed2q0d3nZrutj+/p9mt1a053PYluCe5Q9nKJ7jsVXu5nML+aTK2ESXRLcAfrPa5cmF+jOxFeXsbuHSpvd2lzont4UKvbF9wJ0e2FmXvh5RLdCi331qajK7pEaspg7iVTq2jO2+083Z6HO8hgLvHNAgIgAAIgAAIgEB8CCO7UMaIRTPzWcAAO5IQDKS+4az16o9V69Aar/ZgEd/J87qs1uhVarkRq9d0aSqTmhLc83goxV6kwr063RLcEt0umpkRqmts9sEQivDzwdt8zuLRp1Vzu9PO5vRrdDf3QciVSu1+ie3g0kVpiTvdIJVFTeHmQvbyiBXW6m7nw8goupLy5H1qu7OUsIAACIAACIAAC8SGA4MYAz4kBTht4AgdShwMI7t7/8QT3ozdaHXm7fdFdx5/bfZs/r1vzueX19oT3LaaEaqrVnajRHZnPfavd5bKX35ooGSbBrbJhDbTK062Q8mAdXMruHaS53KU80T1U+6XtvqFlrJE/r1uh5ZrbLbHtkqn5idQaK2u5QstdeHnY0x3M55bojpYMk4c78HLHZ2LQEwiAAAiAAAiAAII7dYxoBBO/NRyAAznhQMoL7pq9b3CCu6Y83c7LHRLdfni5Qsoltq9mL/eEtxPcoXndmtutRGoumZq8237JMHm673Zlw5S5/Oq8bq9sWClTeHmDQaXtHufllugukxDcCi9vpDndEt+azz28jFcuTN5uJ7q1LW9KqKbV1el2tboluL2yYS60fIzn7VZ97mZBErVxhJRjGoIACIAACIBAnAgguDHAc2KA0waewIHU4QCCWx5ut2out8S3F1qu+dwqF+ZWv073bX0VYh6UDbvZebnr9fW83Qopd4nUngrCy4OyYbfanRLfA8LZy0uZ6nV7nm6VDPPKhil52tUQc28utwT3fcpcHgjuIJGay17uhZerbFjg5Zbo1n4wp9uFlyt7+Zjy1mxsBWuukmFjKpnqdcvLzQICIAACIAACIBAfAgju1DGiEUz81nAADuSEAykvuGv0usFqau39H5O3u/ZjCjH3MpcrmZorGfaY6nTfaHUkvLW6Ot2a032Tm9Ndz2Ux17xurRLe3jzuO5Q87Snf0x3ydt81UPO5vRDzuwf4idQGlXRe7nuHlPTndHsJ1RRWrrJhDSW8/ezlmtOt+dyNRngh5hLcrla383J74eWe4K5gTUZd9XR7oeUVrOnYSp6Xe2zF+CwMegIBEAABEAABEDAENwZ4Tgxw2sATOJA6HEh5wV29178TYluiWwnU3Oqyl99gdeTpdmXDPLF9m0LLH/dFd5C93C8b5hKqPanSYb63u59XPiwILZen22Uu11a1uoNEak5sK6zc83S7ud1+FnNXo9ufz+283G5edxlrKMEd1OlW2bBgTvdIlQ7zMpc3Ge2VDWsq0T0mHF5+NYM5thEIgAAIgAAIgEB8CCC4U8eIRjDxW8MBOJATDqS84I7vEUtPIAACIAACIAACqY4AghsDPCcGOG3gCRxIHQ4guFPdMuD6QQAEQAAEQAAEYkMAwZ06RjSCid8aDsCBnHAAwR3bI5aOQAAEQAAEQAAEUh0BBDcGeE4McNrAEziQOhxAcKe6ZcD1gwAIgAAIgAAIxIYAgjt1jGgEE781HIADOeEAgju2RywdgQAIgAAIgAAIpDoCCG4M8JwY4LSBJ3AgdTiA4E51y4DrBwEQAAEQAAEQiA0BBHfqGNEIJn5rOAAHcsIBBHdsj1g6AgEQAAEQAAEQSHUEENwY4DkxwGkDT+BA6nAAwZ3qlgHXDwIgAAIgAAIgEBsCCO7UMaIRTPzWcAAO5IQDCO7YHrF0BAIgAAIgAAIgkOoIILgxwHNigNMGnsCB1OEAgjvVLQOuHwRAAARAAARAIDYEENypY0QjmPit4QAcyAkHENyxPWLpCARAAARAAARAINURQHBjgOfEAKcNPIEDqcMBBHeqWwZcPwiAAAiAAAiAQGwIILhTx4hGMPFbwwE4kBMOILhje8TSEQiAAAiAAAiAQKojgODGAM+JAU4beAIHUocDCO5Utwy4fhAAARAAARAAgdgQQHCnjhGNYOK3hgNwICccQHDH9oilIxAAARAAARAAgVRHAMGNAZ4TA5w28AQOpA4HENypbhlw/SAAAiAAAiAAArEhgOBOHSMawcRvDQfgQE44gOCO7RFLRyAAAiAAAiAAAqmOAIIbAzwnBjht4AkcSB0OILhT3TLg+kEABEAABEAABGJDAMGdOkY0gonfGg7AgZxwAMEd2yOWjkAABEAABEAABFIdAQQ3BnhODHDawBM4kDocQHCnumXA9YMACIAACIAACMSGAII7dYxoBBO/NRyAAznhAII7tkcsHYEACIAACIAACKQ6AghuDPCcGOC0gSdwIHU4UHQF97lzdvToMfth927bsPnzVH9+c/0gAAIgAAIgAALFAAHZLLJdZMOcO3fOMKpTx6jmt+a3hgNwICMOFG3Bfey47f75Z9u0ZautfuMtW7x0uU2fv9gmzppr42fMsfEzZrOCARyAA3AADsABOFBIHJhjE2fNs+kLFtuipcudrSKbRbbL0WPHEdwXML4zMr75DF7AgdTiQJEV3OfPn7eTp07Zvv377dsdO+yjDRttzVvv2PJVa2zJS6/Y8ytWsoIBHIADcAAOwAE4UHgceGmlLX3pFVu+eo2zUT7asMnZLLJdZMPIlsGwTi3Dmt+b3xsOwIFkDhRZwZ2WlmZnz52z4ydO2IGDh233nr323a5d9vX2b23rN9vtq23fsIIBHIADcAAOwAE4UHgc+Fq2yHZnm8hG2f3zXmezyHaRDSNbJtnw4m+McTgAB+BAanGgyApuEVEPKs1/OnPmjHtTfPzkSTt2/PjV9cQJO8YKBnAADsABOAAH4EBhcCBkk8hGkVdbNotsF8R2ahnUCCh+bzgABzLjQJEW3OFBp/kCnAcYZA7zgn34AAfgAByAA4XNAdkmbmXOMh59OAAH4AAcSOJAsRHchf0w5fwYdHAADsABOAAH4AAcgANwAA7AATiQGw4guJPeQOQGPNpys8EBOAAH4AAcgANwAA7AATgAB+BAZhxAcCO4CfuAA3AADsABOAAH4AAcgANwAA7AgQLgAIK7AEDN7O0Gn/PmCw7AATgAB+AAHIADcAAOwAE4kDocQHAjuHmTBQfgAByAA3AADsABOAAH4AAcgAMFwAEEdwGAyhur1HljxW/Nbw0H4AAcgANwAA7AATgAB+BAZhxAcCO4eZMFB+AAHIADcAAOwAE4AAfgAByAAwXAAQR3AYCa2dsNPufNFxyAA3AADsABOAAH4AAcgANwIHU4gOBGcPMmCw7AATgAB+AAHIADcAAOwAE4AAcKgAMI7gIAlTdWqfPGit+a3xoOwAE4AAfgAByAA3AADsCBzDiA4EZw8yYLDsABOAAH4AAcgANwAA7AATgABwqAAwjuAgA1s7cbfM6bLzgAB+AAHIADcAAOwAE4AAfgQOpwAMGN4OZNFhyAA3AADsABOAAH4AAcgANwAA4UAAcQ3AUAKm+sUueNFb81vzUcgANwAA7AATgAB+AAHIADmXEAwY3g5k0WHIADcAAOwAE4AAfgAByAA3AADhQAB4qV4N6//4CtXL3WHntysD3QqhMrGMABOJAnDuh/iP6X6H9KZm8j+Zw31XAADsABOAAH4AAcgAP55UCxEdy/7vvN2nTqmSfjGnHOywk4AAcy4oD+p+h/S37/kXI8D2M4AAfgAByAA3AADsCBjDhQbAT3hCmznNgeMWaS/fDjbmMBARAAgbwioP8h+l8iEa7/LRn9c+QzHppwAA7AATgAB+AAHIAD+eVAsRHcbTt73u0DBw/l1cbmOBAAARBIIKD/JRLc+t+S33+kHM/DGA7AATgAB+AAHIADcCAjDhQbwR2EgyasZXZAAARAIJ8IBP9XMvrnyGc8NOEAHIADcAAOwAE4AAfyywEEdz4Ndg4HARAovggguHmI5vchyvFwCA7AATgAB+AAHMiKAwju4qsVGDkIgEA+EUBw84DM6gHJd/ADDsABOAAH4AAcyC8HENz5NNg5HARAoPgigODmIZrfhyjHwyE4AAfgAByAA3AgKw4guIuvVmDkIAAC+UQAwc0DMqsHJN/BDzgAB+AAHIADcCC/HEBw59Ng53AQAIHiiwCCm4dofh+iHA+H4AAcgANwAA7Agaw4gOAuvlqBkYMACOQTAQQ3D8isHpB8Bz/gAByAA3AADsCB/HIAwZ1Pg53DQQAEii8CCG4eovl9iHI8HIIDcAAOwAE4AAey4gCCu/hqBUYOAiCQTwQQ3Dwgs3pA8h38gANwAA7AATgAB/LLAQR3Pg12DgcBECi+CCC4eYjm9yHK8XAIDsABOAAH4AAcyIoDCO7iqxUYOQiAQD4RQHDzgMzqAcl38AMOwAE4AAfgABzILwcQ3Pk02DkcBECg+CKA4OYhmt+HKMfDITgAB+AAHIADcCArDiC4C1grBAZ9sC3g09E9CIBALhAI7sus/knyHQ9ROAAH4AAcgANwAA7AgbxyAMGdC+M8L00Dgz7Y5qUPjgEBECgYBIL7Mq//QDmOhy8cgANwAA7AATgAB+BAVhxAcBeMHZ/oNTDog23iixTbOX/+vIXXy5cv5xqBixcvRvpIS0vLdR8FfcCVK1ds7y/7TGNlKfoIBPdlVv8k+Y6HKByAA3AADsABOAAH4EBeOYDgLmBNEBj0wbaAT1ckuz956pQF1x9sN2zcnOuxLnpmaaSf3n0H5rqPgjxg2/bvrPsjfd0Y23V5yN5Y/25Bno6+Y0Ag4GNe/4FyHA9fOAAH4AAcgANwAA7Agaw4gOCOwWjPqovAoA+2WbUtzO92/fCTjRgzKbJOnj43liGliuAeMmJ85IVAp+698XTHwqCC6yS4L7P6J8l3PEThAByAA3AADsABOAAH8soBBHfB2fKu58CgD7YFfLo8dz9/0XMRsRiMd+cPP+a5z+DAoiS4L126bCtWvppYP/0s95724LqSt08OHB7BsFmbLnby5KnkZvxdhBAIeJ7Xf6Acx8MXDsABOAAH4AAcgANwICsOILgL2PgPDPpgW8Cny1P3ly5dsg4PPhIRi8F4Fz+3LE99hg8qSoJ732/7I9c5fsrM8FDztf/2ux9G+p42a36++uPggkcg4HlW/yT5jocoHIADcAAOwAE4AAfgQF45gOAuYJs+MOiDbQGfLk/df7Fla0QoBmPVtnOPRy0vCc7CAylKgnvzF19FrjVOwa1rlqBf/8779v2OXaYEaixFG4GA63n9B8pxPHzhAByAA3AADsABOAAHsuIAgruA9UBg0AfbAj5dnrqfOnNeRIQGYw22/922Pdf9XrhwNUt3XgW3+giL1jiSpq16bV3kWuMW3LkFSi8zFOae30U3eRxLXP3EMZZr0UfA8az+SfIdD1E4AAfgAByAA3AADsCBvHIAwV3AVn1g0AfbAj5drrtXqa7WHbonRGiLdg/amAnTEn9r3LPmLc5Rv+9/+ImNHj/VOj7Yy5q27mzdHu5jErQS7MH1B9vMspQfOXrU5i581h5/arBpDrTG1rf/UHt17Rs2Z8EzkX5yk6V89569ppDvJwYMi/TR7ZG+NmPOwsT6yYZNiWtdu2594vOZcxZaUIZsy9av7ZklL5qSpM1b9Gyi/QcffZporz6XLX8l8V14RwL7pVdes4FDR1urDt2sZbsHTfO/X1jxiulGfnbJ8kQ/Tz/3QvjQyP4PP+22ydPnWI9eT7hrevChx23sxGm2Y+cP9t33OxN9aCzbv/0+cmzwhwT/62++7X5z9aPfrU2nHm48S1582ZVhC9oG20OHDkf6/vjTje6ro0eP2bo337GJU2fZ0JHj3RiCY4rqNuBjXv+BchwPXzgAB+AAHIADcAAOwIGsOIDgLmAlEBj0wbaAT5fr7j/65LOIAB0+ZpJJdAbj1bZt555OCGbWueaASySHj8luPyPBvXPXj9alx2M57ic3gjso15XduJ5bujxxmRKv4fZbv/4mneh/9IlBifbzFz8faa+XBsmLkqhJjIb7De/37P1k5DuJ6IwW/W4t23eLtA36kWjWccHf2r7z/kfpulH4e//BoyLtwsdoX7j9uu+3yLE//rQncoxePHy/8wc3/SB8/IaNn0eOK4p/BOPN6p8k3/EQhQNwAA7AATgAB+AAHMgrBxDcBawCAoM+2Bbw6XLd/egJUyPiSd7O02fOWPO2XSKfb9z8RaZ9yzMbXF9Ot8mC+9Sp007Y5/R4tbvWgjsZE40ht4I7u/D95OvPSHD/um+/80Qnt83q72TBrX8YgWc8q+P03eAR4yK/fbLgVht56ZP7QXDzYMrrg4nj4A4cgANwAA7AAThwvXAAwR2REtn/kSwqCvrv7EeU9xbytiaLyAMHD7kOh46aEBFQE6bMyvBEmp/dtlPPSNvmbbva4meX2erX1tm4STOsfZeHI98Ls2TBvWz5ynRtnho4wjTnWmHVffoNSScycyO4FRI+atwUF+4e/s0U0q3PgzUsTJM93OHjgv3cCO5fft2X7hokqNese8tdp+qgh8P7dY6MBPeUGXPTYTV99gIXMq/ybg8/1i/d9+Hr0g/58qo1kTZdez5mH368wb79fqcLbW/X5aHI919/823i989IcAd4hLcIbh6U18uDkuuAy3AADsABOAAH4EBeOYDgTsiInO2EBcW12M/ZqPLW6q2334+Iql59BiQ6WvvG+sh38mCeOXM28X2ws3L12kg7YZLsDZewT8YqLLiVHE3zhsNtnho0Il0Y+8JnlkTa5EZwB+MdOXZypI+skqYlC26J82GjJrg51hKnmz7/0sKiMruQ8meefzFybs1R33/gYDA0t9VLijAOmgcfXk6fPpNOtM+cuyjcxO0nh5u/Gwop1xzy1h2jeId/D3Ww8Oko1op8CJaMBLdEvsqgaa79519+5cR78PImOK4obgOs8/oPlON4+MIBOAAH4AAcgANwAA5kxQEEdy5VQGCgX6ttLoeXq+aDho+NiLvw/GWJpeRrfO+Dj9P1nxwiLeGVvGSXpTy5NrbOqznKyUscWcrzI7gVfp/Vkp3gTk5GN3Lc5HTdZSe4lSgt+XfR3PfkJSvBnfzbtu/6sHu5oYzwwZpcKk4CPFgyEtw//Lg7+LpYbQMss/onyXc8ROEAHIADcAAOwAE4AAfyygEEdy7lQWCgX6ttLoeX4+aHDv+ezlP6TVIma4VLh69z+OiJ6frvN3hkpI3CnZOX7AS3sn6Hz6N9zVNOXoq74E7Gc/Fzy5Iv0YXhh7FI9nDLox7+XvvyeicvWQnur/67LV0fyX0m/60M8cGC4OaBk9cHDsfBHTgAB+AAHIADcCDVOIDgDlREAW2ThUsBnSbX3SZ7UjVOhXGrVFWwKtt1ePz6++ix45Fzde7xaKRN2BMaNMxOcK9/JxrarnOeOHEyODyxLe6Cu1P33hGslr74cuLagp3k3yVZcL/59nuRPoTVxYtXa54H/WQluDPCO/w7Z7T/3LIVQdeG4OZBmWoPSq4XzsMBOAAH4AAcgAN55QCCOyEjCmYnWbwUzFly36uSkCWPLSd/a253eFHpq/BxSt6VvGQnuDdu/jLSh/rLaP5vcRfcyTXAw17jALPsBLfmR4fx1v7vR44Ghye2WQnujLzkvfsOsKzWoNa2ToDg5oGT1wcOx8EdOAAH4AAcgANwINU4gOBOSJSC2UkWRwVzltz1uveXX9OJtuRxZva3vODhZcachZG+kr9X2+wEd/KcYp17y1dfh0/j9ou74J44dXYEK81315zp8JKd4M7ot8tovntWgvun3T9HxqFa27lZENw8KFPtQcn1wnk4AAfgAByAA3AgrxxAcOdGaeShbbJwzUMXsR+SXIJLoeLKAC5Bm7wme7B1Pb/tP5AY09p10Wzm+l6CLrxkJ7glOpPLUKmcWPISh+BW+a/wb/LYk4OTT5P4OzlLeX6TpiWX4tI4whEDaWlplvwCIzmkXG2SM7rLMx0O9d/z89505d7CWcrPnjsXwUDjUJK0nC4Ibh44eX3gcBzcgQNwAA7AATgAB1KNAwjunKqMPLYLizvtF/Yicduj95MRwTVw2JhMhyXvafI1rFj5aqK9Eq0lf6953QpB/n7nD67G9OCkbOhqn1yGasiI8en6mTVvsX373Q7b/MVXNm/Rs9axW69Im7yUBZu74JlIHxqL6nwrrP2TDZvc+YKLi1twnzp12tp2jtYs1/mVTE11zzs8+Ei6sWVUh/uFFa+ka6d+h44cb336DU33nc6RXId7+JhJkXZ64fHKq6+7lynnz583JdVTcjW9UJm78Fnb+8u+ABZCyi/woEy1ByXXC+fhAByAA3AADsCBvHIAwZ2QEQWzI7ETXgvmLDnvVSI4PB7tr3ptXaYdKAN287ZdIseE63VLwE+ePifyfXL/Gf2dLLhV7io5DDqj48Kf5UVwZ+SRD/cpD3OwxC241e8rGdQtD58/eT8jwX36zBnrnJSALfm45L+TBfcvv+5L97smHxP+O1xbHQ83D5y8PnA4Du7AATgAB+AAHIADqcYBBHegrgpoGxYt2i/sRaHjyWPSvOCslmGjJqQ7RqIrWM6npWXqWU0+V/B3suBWXxl504P2GW3zIrgVTt2152Pprifov6AFt67ztdffsmZtoi8xdH69cHjo0aciY0sOKQ8wP3TosPXtn7E3O7lUm/oOh5QHfWgcyS9TAhyStwhuHo6p9nDkeuE8HIADcAAOwAE4EAcHENyB+iigbbJwKaDT5LhbCbjwmBRent2y7s13Isfo+BdfWhU57PDvR0we4eRSYkrIJbE2ceqsSB8ZCW51+Nbb76cTxBKFEsJff/NtpI+8CG6dQy8YFMIeHqvOodDu8Jzq5DFnN4dboelhbDX/PbNFY3hj/bs2c+4iU+j8mnVvuczsy5ZHw8UzSkIX9KkXHQqFV3mxSdNm25IXX3ZYa553+No0poyS0KkfzffuP2RUZNzha2jdsYeNnzLT9h84GJzWft77S7r2P/z4/9u7n9e4qjAMwH+ninYRoQt3LnQhFKSLIkGLhRbRhVBwUVDoQkEQpBIqrkSqVdHalNq01UUbhWYRCFe+kSPJcWIzOfdz5tw8gTKddnrnzsvTe+77za/Nf/6+p9+UxzrGwdQ2LMoMMMAAAwwwwAADtQGFO7kdlBP6cpl8d0vf/OPt7eH7H38abnx7c3j06PGx9ie+VzoK6dff3Bg279wddnf//T3Tx9pw9Y/ivcq3N+/M7mved1lXN/9frr514Z0DZXb/M+5H3YF7W/cPbCPszfuatf3be/JkZ/j51u3hi40vh8+vbaRnv/++l/n78v+yPjC6brFkgAEGGGCAAQYYGMOAwp18tl9O6Mtl8t3Z/IonEO+/rr8KrOxyPIv8zKnTB8pyvOe7/ol/H9s57OfSu+8f2Ea8VP2w+zxsGyflz8v/yzEOprZhUWaAAQYYYIABBhioDSjcyc2inNCXy+S7s/kVT6B8Gvn6+YtDfE1YPJt8beP67GXh9VejxSePz3uVQHxye7xkPN7DHS9j/+TTz2afCh8v/Z/3fvvLH1xZ8VSWt3vl/2V9YHTdYskAAwwwwAADDDAwhgGFO/lcv5zQl8vku7P5FU/gzNk3Djz7XFzMu4z3eM/7+e7mD0feRryHPl4672d+AiX3MQ6mtmFRZoABBhhggAEGGKgNKNzzz8P9qQRSEpj3DHQpfeUyXlZ+5cOrh74MPN4jX277X5evvPb67EPRUh7IRDZa8qsPjK5bLBlggAEGGGCAAQbGMKBwT6Q4eBh9JBCfLL5x/avh3PrbQ3xifPl6sGdPnR7iU80vXHpviA89e9rP3V+3Zp9KHv8mXnpeimN85Vm8bD0+bX1vb+9pmznxf19yG+NgahsWZQYYYIABBhhggIHagP8g0rEAAAd7SURBVMJ94iuHAJaZQJTi7T/+PPTZ7KPu287OzhC//CyWgMJtUawXRdeZYIABBhhggIExDSjci52fu7UEJDChBBRuC+qYC6pt8cQAAwwwwAADtQGFe0LlwUORgAQWS0DhtijWi6LrTDDAAAMMMMDAmAYU7sXOz91aAhKYUAIKtwV1zAXVtnhigAEGGGCAgdqAwj2h8uChSEACiyWgcFsU60XRdSYYYIABBhhgYEwDCvdi5+duLQEJTCgBhduCOuaCals8McAAAwwwwEBtQOGeUHnwUCQggcUSULgtivWi6DoTDDDAAAMMMDCmAYV7sfNzt5aABCaUgMJtQR1zQbUtnhhggAEGGGCgNqBwT6g8eCgSkMBiCSjcFsV6UXSdCQYYYIABBhgY04DCvdj5uVtLQAITSkDhtqCOuaDaFk8MMMAAAwwwUBvopnC/8OJLQ5wcP/zt9wmd7nsoEpDAshKIY0kcU+LYUh8YXbdYMsAAAwwwwAADDIxhoJvCvX7+4uzk+Oy5N4dbv2wu6xzd/UpAAhNIII4hcSyJwh3HljEOprZhUWaAAQYYYIABBhioDXRTuO9t3R+eX/v7We7yMlCXa7PCIAc5MHA8A3FMiWNLfWB03WLJAAMMMMAAAwwwMIaBbgp3PNgHDx4OH139eHj51TOK5nPHKxiKmdwYWJsdQ+JYEseUMQ6ktmFBZoABBhhggAEGGJhnoKvCPe8B+DOwGWCAAQYYYIABBhhggAEGVtGAwr0L5irCtE9cMsAAAwwwwAADDDDAQO8GFG6F20tqGWCAAQYYYIABBhhggAEGEgwo3Amh9j6Fsf8miQwwwAADDDDAAAMMMMBAuwGFW+E2yWKAAQYYYIABBhhggAEGGEgwoHAnhGoS1D4JkqEMGWCAAQYYYIABBhhgoHcDCrfCbZLFAAMMMMAAAwwwwAADDDCQYEDhTgi19ymM/TdJZIABBhhggAEGGGCAAQbaDSjcCrdJFgMMMMAAAwwwwAADDDDAQIIBhTshVJOg9kmQDGXIAAMMMMAAAwwwwAADvRtQuBVukywGGGCAAQYYYIABBhhggIEEAwp3Qqi9T2Hsv0kiAwwwwAADDDDAAAMMMNBuQOFWuE2yGGCAAQYYYIABBhhggAEGEgwo3AmhmgS1T4JkKEMGGGCAAQYYYIABBhjo3YDCrXCbZDHAAAMMMMAAAwwwwAADDCQYULgTQu19CmP/TRIZYIABBhhggAEGGGCAgXYDCrfCbZLFAAMMMMAAAwwwwAADDDCQYEDhTgjVJKh9EiRDGTLAAAMMMMAAAwwwwEDvBhRuhdskiwEGGGCAAQYYYIABBhhgIMGAwp0Qau9TGPtvksgAAwwwwAADDDDAAAMMtBtQuBVukywGGGCAAQYYYIABBhhggIEEAwp3QqgmQe2TIBnKkAEGGGCAAQYYYIABBno3oHAr3CZZDDDAAAMMMMAAAwwwwAADCQYU7oRQe5/C2H+TRAYYYIABBhhggAEGGGCg3YDCrXCbZDHAAAMMMMAAAwwwwAADDCQYULgTQjUJap8EyVCGDDDAAAMMMMAAAwww0LsBhVvhNsligAEGGGCAAQYYYIABBhhIMKBwJ4Ta+xTG/pskMsAAAwwwwAADDDDAAAPtBhRuhdskiwEGGGCAAQYYYIABBhhgIMGAwp0QqklQ+yRIhjJkgAEGGGCAAQYYYICB3g0o3Aq3SRYDDDDAAAMMMMAAAwwwwECCAYU7IdTepzD23ySRAQYYYIABBhhggAEGGGg3oHAr3CZZDDDAAAMMMMAAAwwwwAADCQYU7oRQTYLaJ0EylCEDDDDAAAMMMMAAAwz0bkDhVrhNshhggAEGGGCAAQYYYIABBhIMKNwJofY+hbH/JokMMMAAAwwwwAADDDDAQLsBhVvhNsligAEGGGCAAQYYYIABBhhIMKBwJ4RqEtQ+CZKhDBlggAEGGGCAAQYYYKB3Awq3wm2SxQADDDDAAAMMMMAAAwwwkGBA4U4ItfcpjP03SWSAAQYYYIABBhhggAEG2g0o3Aq3SRYDDDDAAAMMMMAAAwwwwECCAYU7IVSToPZJkAxlyAADDDDAAAMMMMAAA70bULgVbpMsBhhggAEGGGCAAQYYYICBBAMKd0KovU9h7L9JIgMMMMAAAwwwwAADDDDQbkDhVrhNshhggAEGGGCAAQYYYIABBhIMKNwJoZoEtU+CZChDBhhggAEGGGCAAQYY6N2Awq1wm2QxwAADDDDAAAMMMMAAAwwkGFC4E0LtfQpj/00SGWCAAQYYYIABBhhggIF2Awq3wm2SxQADDDDAAAMMMMAAAwwwkGBA4U4I1SSofRIkQxkywAADDDDAAAMMMMBA7wYUboXbJIsBBhhggAEGGGCAAQYYYCDBgMKdEGrvUxj7b5LIAAMMMMAAAwwwwAADDLQbULgVbpMsBhhggAEGGGCAAQYYYICBBAMKd0KoJkHtkyAZypABBhhggAEGGGCAAQZ6N6BwK9wmWQwwwAADDDDAAAMMMMAAAwkGFO6EUHufwth/k0QGGGCAAQYYYIABBhhgoN3AXwBFXYbo0C4wAAAAAElFTkSuQmCC;" parent="1" vertex="1"><mxGeometry x="730" y="150" width="324.42" height="220" as="geometry"/></mxCell><mxCell id="2" value="&lt;font style=&quot;font-size: 14px&quot; color=&quot;#33001a&quot;&gt;End User&lt;/font&gt;" style="text;html=1;strokeColor=none;fillColor=none;align=center;verticalAlign=middle;whiteSpace=wrap;rounded=0;fontColor=#000000;" vertex="1" parent="1"><mxGeometry x="80" y="210" width="140" height="20" as="geometry"/></mxCell></root></mxGraphModel></diagram></mxfile>